<?xml version="1.0" encoding="UTF-8" standalone="no"?>
<svg
   xmlns:dc="http://purl.org/dc/elements/1.1/"
   xmlns:cc="http://creativecommons.org/ns#"
   xmlns:rdf="http://www.w3.org/1999/02/22-rdf-syntax-ns#"
   xmlns:svg="http://www.w3.org/2000/svg"
   xmlns="http://www.w3.org/2000/svg"
   xmlns:sodipodi="http://sodipodi.sourceforge.net/DTD/sodipodi-0.dtd"
   xmlns:inkscape="http://www.inkscape.org/namespaces/inkscape"
   version="1.1"
   id="Layer_1"
   x="0px"
   y="0px"
   width="91.647003"
   height="147.99455"
   viewBox="0 0 91.647001 147.99455"
   enable-background="new 0 0 63.448 100"
   xml:space="preserve"
   inkscape:version="0.48.4 r9939"
   sodipodi:docname="mirror.svg"><metadata
     id="metadata9"><rdf:RDF><cc:Work
         rdf:about=""><dc:format>image/svg+xml</dc:format><dc:type
           rdf:resource="http://purl.org/dc/dcmitype/StillImage" /></cc:Work></rdf:RDF></metadata><defs
     id="defs7" /><sodipodi:namedview
     pagecolor="#ffffff"
     bordercolor="#666666"
     borderopacity="1"
     objecttolerance="10"
     gridtolerance="10"
     guidetolerance="10"
     inkscape:pageopacity="0"
     inkscape:pageshadow="2"
     inkscape:window-width="1440"
     inkscape:window-height="755"
     id="namedview5"
     showgrid="false"
     fit-margin-top="0"
     fit-margin-left="0"
     fit-margin-right="0"
     fit-margin-bottom="0"
     inkscape:zoom="3.337544"
     inkscape:cx="-22.12847"
     inkscape:cy="42.7813"
     inkscape:window-x="-2"
     inkscape:window-y="-3"
     inkscape:window-maximized="1"
     inkscape:current-layer="Layer_1" /><path
     d="m 91.646999,75.18893 c 0,-23.177766 -8.87424,-43.467582 -22.148516,-54.64552 0.768909,0.1998 1.636203,0.11958 2.338512,-0.463161 1.039844,-0.864267 1.251749,-3.567558 0.07719,-4.778439 -0.578196,-0.594843 -1.471221,-1.197258 -2.707833,-1.575657 0.311802,-0.2013 0.597873,-0.411699 0.829452,-0.637227 2.405111,-2.323377 3.276944,-5.6608646 2.100878,-7.6088696 -1.893512,-3.133152 -6.915641,-2.020656 -7.819259,0.426837 -1.457598,3.945957 1.969194,5.0433176 1.18515,6.1875986 -0.444999,0.650847 -3.952011,0.824913 -6.765795,-0.28455 -0.944487,-0.372348 -2.246184,-1.451544 -3.634155,-2.5776626 0.673551,0.10443 1.481814,0.04542 2.467167,-0.319371 2.447493,-0.903618 3.559989,-5.925744 0.426837,-7.81926 -1.324401,-0.79917896 -3.290568,-0.63268496 -5.146242,0.301206 -0.08475,-0.15741 -0.18012,-0.313314 -0.301206,-0.45861896 -0.864267,-1.039845 -2.682102,-1.256289 -4.154835,-0.432891 -1.033788,0.57668096 -2.04336,2.48533196 -2.25375,4.65280796 -0.08325,0.852159 -0.09384,1.767885 -0.05448,2.623071 -0.0135,0.03177 -0.0273,0.06357 -0.03936,0.09384 0.0288,-0.800694 0.012,-1.642257 -0.06357,-2.429328 -0.21039,-2.168991 -1.219962,-4.076127 -2.25375,-4.65432296 -1.472733,-0.821886 -3.289053,-0.606954 -4.15332,0.43289096 -0.12261,0.14682 -0.21948,0.301206 -0.302721,0.460134 -1.854159,-0.93389096 -3.820326,-1.10038796 -5.144727,-0.301206 -3.133155,1.893513 -2.020656,6.915639 0.425322,7.81926 0.599385,0.22098 1.124604,0.319368 1.602903,0.348126 -1.241154,1.0065446 -2.388462,1.9237886 -3.24516,2.2613216 -2.813784,1.107954 -6.320797,0.933891 -6.765796,0.28455 -0.785558,-1.144281 2.642748,-2.2401296 1.18515,-6.1875986 -0.903621,-2.447493 -5.925747,-3.559989 -7.819261,-0.426837 -1.176068,1.948005 -0.305747,5.2854926 2.100878,7.6088696 0.231582,0.22554 0.517651,0.437433 0.829453,0.637227 -1.236612,0.378399 -2.128123,0.979299 -2.706318,1.574145 -1.176068,1.210884 -0.964163,3.914175 0.07568,4.779954 0.702311,0.582735 1.569604,0.662955 2.336999,0.461646 C 8.8742396,31.719833 -3.1086751e-7,52.009649 -3.1086751e-7,75.187415 -3.1086751e-7,105.86507 15.547704,131.47822 36.267384,137.60073 c -1.051953,0.0499 -1.990386,0.18921 -2.659398,0.30726 -1.082223,0.19524 -3.233049,-2.12812 -4.787518,-0.27246 -1.356186,1.61653 -0.1317,3.63264 1.949518,3.75373 1.987356,0.12108 5.400525,-1.6029 6.938346,-1.61652 2.155365,-0.0183 4.446957,0.99595 4.577127,1.54084 0.22854,0.96417 -2.332458,0.81583 -2.3703,3.81882 -0.0243,1.85718 3.036285,3.88087 5.097807,2.28251 0.581223,-0.45257 0.942975,-1.20937 1.083738,-2.09634 0.14076,0.88697 0.502515,1.64377 1.082226,2.09634 2.061522,1.59987 5.122023,-0.42533 5.097807,-2.28251 -0.03783,-3.00299 -2.598852,-2.85617 -2.3703,-3.81882 0.12867,-0.54338 2.421762,-1.55749 4.57713,-1.54084 1.537818,0.015 4.950987,1.73761 6.939858,1.61652 2.079687,-0.12108 3.302676,-2.1372 1.948002,-3.75373 -1.554468,-1.85718 -3.703779,0.46771 -4.787517,0.27246 -0.773451,-0.13926 -1.910163,-0.3012 -3.16494,-0.31634 20.700002,-6.14219 36.228029,-31.74323 36.228029,-62.40272 z M 66.329004,14.929465 c 1.568091,-0.08325 3.066555,0.348129 3.160398,0.693228 0.18768,0.678096 -1.895028,0.84459 -1.91622,3.040824 -0.0015,0.13167 0.0273,0.26487 0.07113,0.396564 -1.843563,-1.392513 -3.765837,-2.606421 -5.751681,-3.643236 1.560522,0.05145 3.090774,-0.13167 4.436364,-0.48738 z M 48.374673,3.1672754 c 0.402618,-0.11199 0.631173,0.573654 1.204827,1.156392 -0.28455,0.491919 -0.531273,1.0686 -0.743178,1.689177 -0.413214,0.03177 -0.803721,0.12564 -1.157904,0.27699 -0.07416,-1.552956 0.354183,-3.028716 0.696255,-3.122559 z m -2.479278,6.497889 c 0.0333,0.15741 0.07416,0.317856 0.13017,0.4813226 0.16347,0.473757 0.393537,0.823398 0.66447,1.098876 0.015,0.04845 0.03783,0.11049 0.05448,0.16044 -0.307263,-0.009 -0.611496,-0.0333 -0.921783,-0.0333 -0.11505,0 -0.22857,0.0105 -0.343587,0.012 0.08172,-0.26337 0.15288,-0.501003 0.20586,-0.682635 0.08175,-0.28152 0.15288,-0.635712 0.21039,-1.0368146 z m -2.146284,-6.211818 c 0.339045,0.09384 0.764367,1.543872 0.700797,3.078663 -0.367806,-0.23007 -0.790101,-0.392022 -1.250235,-0.473757 -0.19524,-0.525219 -0.410184,-1.02168 -0.656901,-1.448514 0.573654,-0.582738 0.803721,-1.268397 1.206339,-1.156392 z M 22.156084,15.624208 c 0.09536,-0.345102 1.595335,-0.776478 3.161912,-0.693228 1.347104,0.355695 2.875841,0.537327 4.434848,0.487377 -1.985844,1.036818 -3.908115,2.250726 -5.751681,3.643239 0.0439,-0.13167 0.07417,-0.26337 0.07265,-0.395052 -0.02271,-2.199261 -2.103904,-2.365755 -1.917732,-3.042336 z M 46.629492,141.8146 c -0.27549,0.59182 -0.446511,1.20331 -0.535815,1.80269 -0.08931,-0.59938 -0.26034,-1.21239 -0.537327,-1.80269 -0.491922,-1.05801 -1.787562,-2.20532 -3.428307,-3.03628 1.219962,0.13623 2.449008,0.22401 3.693186,0.22401 1.477275,0 2.934873,-0.10596 4.377333,-0.29514 -1.707342,0.83399 -3.062013,2.01914 -3.56907,3.10742 z m -0.806748,-4.79206 c -24.032951,0 -43.516017,-27.69738 -43.516017,-61.860856 0,-31.744746 16.822156,-57.89068 38.484807,-61.438558 -0.09837,0.35721 -0.19827,0.715932 -0.334506,1.059519 -0.24975,0.629658 -0.0333,1.009572 0.392025,1.132173 -0.22251,0.329967 -0.408672,0.582738 -0.517653,0.711393 -1.058007,1.2351 2.356677,0.808263 3.540312,-1.327428 0.358722,-0.644793 0.662958,-1.321371 0.918756,-1.961625 0.343587,-0.012 0.685662,-0.03633 1.030761,-0.03633 0.55095,0 1.097361,0.03027 1.642257,0.05904 0.23007,0.547923 0.485865,1.109469 0.787071,1.65285 1.183638,2.137206 4.596807,2.56404 3.5388,1.327428 -0.10899,-0.12714 -0.29364,-0.379914 -0.516138,-0.71139 0.425322,-0.12261 0.640254,-0.502518 0.392022,-1.132173 -0.08475,-0.21645 -0.14229,-0.441972 -0.21342,-0.662958 21.369011,3.927792 37.885421,29.878474 37.885421,61.32958 0.0015,34.161965 -19.483067,61.859335 -43.514501,61.859335 z"
     id="path3"
     inkscape:connector-curvature="0"
     style="fill:#7c2929;fill-opacity:1" /></svg>