<svg xmlns="http://www.w3.org/2000/svg" width="135" height="161.907" viewBox="0 0 135 161.90741" enable-background="new 0 0 100 100"><path d="M129.714 150.125c.438-.288.86-.626 1.248-1.015 3.015-3.013 3.015-7.902 0-10.912-.847-.85-1.846-1.45-2.905-1.822 1.29-4.332 3.668-15.944-1.047-32.707 2.89-.494 5.093-3.002 5.093-6.035 0-1.844-.816-3.494-2.103-4.618 2.963-2.21 5-6.78 5-12.065 0-5.283-2.037-9.852-5-12.062 1.287-1.124 2.103-2.773 2.103-4.616 0-3.03-2.2-5.54-5.093-6.033 4.18-14.865 2.79-25.677 1.52-30.957.884-.374 1.713-.916 2.435-1.638 3.015-3.015 3.015-7.902 0-10.916-.387-.39-.81-.728-1.25-1.016.687-.324 1.338-.773 1.92-1.352 2.42-2.418 2.636-6.124.485-8.274-2.15-2.152-5.855-1.935-8.274.483-.576.58-1.025 1.233-1.35 1.92-.29-.444-.628-.864-1.015-1.252-3.01-3.013-7.902-3.013-10.913 0-.553.55-.993 1.165-1.344 1.818-3.14-1.12-9.88-2.678-19.35-.306-.907-2.257-3.105-3.853-5.686-3.853-1.846 0-3.49.812-4.62 2.1C77.354 2.034 72.786 0 67.5 0c-5.284 0-9.85 2.035-12.063 4.996-1.122-1.285-2.775-2.098-4.616-2.098-2.578 0-4.782 1.597-5.685 3.854-9.475-2.37-16.212-.815-19.35.306-.35-.653-.795-1.268-1.345-1.82-3.015-3.012-7.9-3.012-10.916 0-.388.39-.727.81-1.013 1.253-.323-.686-.775-1.34-1.35-1.918-2.42-2.42-6.123-2.634-8.275-.482-2.15 2.152-1.93 5.856.486 8.273.577.58 1.233 1.028 1.92 1.352-.446.29-.865.627-1.255 1.017-3.012 3.013-3.012 7.9 0 10.916.722.72 1.55 1.267 2.436 1.64-1.268 5.283-2.662 16.093 1.52 30.957-2.89.493-5.093 3.003-5.093 6.032 0 1.843.812 3.493 2.1 4.616C2.033 71.103 0 75.673 0 80.953c0 5.285 2.035 9.853 4.998 12.064-1.285 1.122-2.1 2.774-2.1 4.618 0 3.03 2.2 5.54 5.092 6.034-4.718 16.765-2.34 28.374-1.05 32.71-1.058.37-2.057.973-2.905 1.818-3.012 3.013-3.012 7.902 0 10.915.388.386.81.724 1.25 1.016-.685.32-1.338.773-1.917 1.35-2.418 2.418-2.636 6.12-.486 8.27 2.152 2.154 5.856 1.936 8.275-.483.576-.575 1.027-1.23 1.35-1.917.29.44.627.86 1.016 1.248 3.013 3.015 7.9 3.015 10.915 0 1.012-1.01 1.676-2.233 2.006-3.528 3.373 1.086 9.835 2.3 18.69.084.903 2.26 3.105 3.855 5.685 3.855 1.84 0 3.492-.813 4.615-2.1 2.212 2.964 6.78 4.997 12.063 4.997 5.284 0 9.852-2.033 12.063-4.996 1.123 1.288 2.775 2.1 4.617 2.1 2.583 0 4.785-1.592 5.688-3.854 8.856 2.216 15.318 1.002 18.69-.083.33 1.294.995 2.518 2.007 3.527 3.01 3.016 7.9 3.016 10.91 0 .39-.386.728-.807 1.016-1.25.325.688.775 1.342 1.35 1.92 2.42 2.42 6.125 2.637 8.275.484 2.152-2.15 1.933-5.85-.486-8.27-.576-.588-1.225-1.036-1.913-1.36zm-15.845-9.348H21.346V21.49h92.522v119.287z" fill="#7c2929"/><path d="M129.714 150.125c.438-.288.86-.626 1.248-1.015 3.015-3.013 3.015-7.902 0-10.912-.847-.85-1.846-1.45-2.905-1.822 1.29-4.332 3.668-15.944-1.047-32.707 2.89-.494 5.093-3.002 5.093-6.035 0-1.844-.816-3.494-2.103-4.618 2.963-2.21 5-6.78 5-12.065 0-5.283-2.037-9.852-5-12.062 1.287-1.124 2.103-2.773 2.103-4.616 0-3.03-2.2-5.54-5.093-6.033 4.18-14.865 2.79-25.677 1.52-30.957.884-.374 1.713-.916 2.435-1.638 3.015-3.015 3.015-7.902 0-10.916-.387-.39-.81-.728-1.25-1.016.687-.324 1.338-.773 1.92-1.352 2.42-2.418 2.636-6.124.485-8.274-2.15-2.152-5.855-1.935-8.274.483-.576.58-1.025 1.233-1.35 1.92-.29-.444-.628-.864-1.015-1.252-3.01-3.013-7.902-3.013-10.913 0-.553.55-.993 1.165-1.344 1.818-3.14-1.12-9.88-2.678-19.35-.306-.907-2.257-3.105-3.853-5.686-3.853-1.846 0-3.49.812-4.62 2.1C77.354 2.034 72.786 0 67.5 0c-5.284 0-9.85 2.035-12.063 4.996-1.122-1.285-2.775-2.098-4.616-2.098-2.578 0-4.782 1.597-5.685 3.854-9.475-2.37-16.212-.815-19.35.306-.35-.653-.795-1.268-1.345-1.82-3.015-3.012-7.9-3.012-10.916 0-.388.39-.727.81-1.013 1.253-.323-.686-.775-1.34-1.35-1.918-2.42-2.42-6.123-2.634-8.275-.482-2.15 2.152-1.93 5.856.486 8.273.577.58 1.233 1.028 1.92 1.352-.446.29-.865.627-1.255 1.017-3.012 3.013-3.012 7.9 0 10.916.722.72 1.55 1.267 2.436 1.64-1.268 5.283-2.662 16.093 1.52 30.957-2.89.493-5.093 3.003-5.093 6.032 0 1.843.812 3.493 2.1 4.616C2.033 71.103 0 75.673 0 80.953c0 5.285 2.035 9.853 4.998 12.064-1.285 1.122-2.1 2.774-2.1 4.618 0 3.03 2.2 5.54 5.092 6.034-4.718 16.765-2.34 28.374-1.05 32.71-1.058.37-2.057.973-2.905 1.818-3.012 3.013-3.012 7.902 0 10.915.388.386.81.724 1.25 1.016-.685.32-1.338.773-1.917 1.35-2.418 2.418-2.636 6.12-.486 8.27 2.152 2.154 5.856 1.936 8.275-.483.576-.575 1.027-1.23 1.35-1.917.29.44.627.86 1.016 1.248 3.013 3.015 7.9 3.015 10.915 0 1.012-1.01 1.676-2.233 2.006-3.528 3.373 1.086 9.835 2.3 18.69.084.903 2.26 3.105 3.855 5.685 3.855 1.84 0 3.492-.813 4.615-2.1 2.212 2.964 6.78 4.997 12.063 4.997 5.284 0 9.852-2.033 12.063-4.996 1.123 1.288 2.775 2.1 4.617 2.1 2.583 0 4.785-1.592 5.688-3.854 8.856 2.216 15.318 1.002 18.69-.083.33 1.294.995 2.518 2.007 3.527 3.01 3.016 7.9 3.016 10.91 0 .39-.386.728-.807 1.016-1.25.325.688.775 1.342 1.35 1.92 2.42 2.42 6.125 2.637 8.275.484 2.152-2.15 1.933-5.85-.486-8.27-.576-.588-1.225-1.036-1.913-1.36zm-15.845-9.348H21.346V21.49h92.522v119.287z" fill="#7c2929"/></svg>