<?xml version="1.0" encoding="UTF-8" standalone="no"?>
<svg
   xmlns:dc="http://purl.org/dc/elements/1.1/"
   xmlns:cc="http://creativecommons.org/ns#"
   xmlns:rdf="http://www.w3.org/1999/02/22-rdf-syntax-ns#"
   xmlns:svg="http://www.w3.org/2000/svg"
   xmlns="http://www.w3.org/2000/svg"
   xmlns:sodipodi="http://sodipodi.sourceforge.net/DTD/sodipodi-0.dtd"
   xmlns:inkscape="http://www.inkscape.org/namespaces/inkscape"
   version="1.1"
   id="Layer_1"
   x="0px"
   y="0px"
   width="135"
   height="161.90741"
   viewBox="0 0 135 161.90741"
   enable-background="new 0 0 100 100"
   xml:space="preserve"
   inkscape:version="0.48.4 r9939"
   sodipodi:docname="artwork.svg"><metadata
     id="metadata13"><rdf:RDF><cc:Work
         rdf:about=""><dc:format>image/svg+xml</dc:format><dc:type
           rdf:resource="http://purl.org/dc/dcmitype/StillImage" /></cc:Work></rdf:RDF></metadata><defs
     id="defs11" /><sodipodi:namedview
     pagecolor="#ffffff"
     bordercolor="#666666"
     borderopacity="1"
     objecttolerance="10"
     gridtolerance="10"
     guidetolerance="10"
     inkscape:pageopacity="0"
     inkscape:pageshadow="2"
     inkscape:window-width="1440"
     inkscape:window-height="755"
     id="namedview9"
     showgrid="false"
     fit-margin-top="0"
     fit-margin-left="0"
     fit-margin-right="0"
     fit-margin-bottom="0"
     inkscape:zoom="1.668772"
     inkscape:cx="-108.22835"
     inkscape:cy="-0.18547721"
     inkscape:window-x="-2"
     inkscape:window-y="-3"
     inkscape:window-maximized="1"
     inkscape:current-layer="Layer_1" /><path
     inkscape:connector-curvature="0"
     id="path7"
     d="m 129.71373,150.12541 c 0.43875,-0.28821 0.85973,-0.62658 1.2483,-1.01515 3.01472,-3.0131 3.01472,-7.9027 0,-10.91256 -0.84677,-0.8484 -1.84574,-1.45069 -2.90462,-1.82146 1.29041,-4.33264 3.66721,-15.94464 -1.04753,-32.70691 2.89004,-0.49382 5.0936,-3.00177 5.0936,-6.034289 0,-1.844127 -0.81602,-3.493965 -2.10318,-4.6176 C 132.96321,90.807407 135,86.236757 135,80.952098 c 0,-5.283036 -2.03679,-9.852063 -4.9997,-12.062097 1.28716,-1.123641 2.10318,-2.773476 2.10318,-4.615983 0,-3.029286 -2.20032,-5.538852 -5.0936,-6.03267 4.18044,-14.866335 2.79128,-25.678512 1.51869,-30.958312 0.88563,-0.374015 1.71459,-0.916397 2.4367,-1.638503 3.01472,-3.014716 3.01472,-7.90108 0,-10.915795 -0.38695,-0.38859 -0.80954,-0.726963 -1.24993,-1.015161 0.68649,-0.323802 1.33736,-0.772296 1.92023,-1.351929 2.41889,-2.4172706 2.63585,-6.1233386 0.4841,-8.2734586 -2.14851,-2.15176 -5.85457,-1.9348 -8.27347,0.48248 -0.57639,0.57801 -1.02487,1.23212 -1.3503,1.9186 -0.2898,-0.44364 -0.62821,-0.86297 -1.01517,-1.25154 -3.01147,-3.0131 -7.90269,-3.0131 -10.91417,0 -0.55211,0.55048 -0.9925,1.16573 -1.34383,1.81822 -3.13939,-1.1204 -9.88121,-2.67795 -19.349558,-0.30603 -0.906678,-2.25699 -3.105381,-3.8534 -5.686188,-3.8534 -1.845741,0 -3.490722,0.81278 -4.619214,2.09994 C 77.352876,2.0351794 72.785469,-6.4921765e-7 67.499193,-6.4921765e-7 62.216151,-6.4921765e-7 57.648747,2.0351794 55.43709,4.9964594 c -1.122018,-1.28554 -2.775093,-2.09832 -4.615977,-2.09832 -2.579187,0 -4.782744,1.59641 -5.686188,3.8534 -9.474822,-2.37033 -16.211788,-0.81439 -19.351173,0.30599 -0.3481,-0.65249 -0.793346,-1.26774 -1.343831,-1.81822 -3.014716,-3.0131 -7.901081,-3.0131 -10.915797,0 -0.388576,0.38859 -0.726964,0.80954 -1.01354,1.25154 -0.323816,-0.68649 -0.775536,-1.34059 -1.350307,-1.9186 -2.4188968,-2.4189 -6.1233382,-2.63423 -8.2750873,-0.48249 -2.15013012,2.15175 -1.93155516,5.856193 0.4857222,8.2734726 0.5763903,0.579627 1.2321153,1.028112 1.9186026,1.351923 -0.4452456,0.2898 -0.8645856,0.626583 -1.2547824,1.016781 -3.0114774,3.013095 -3.0114774,7.90108 0,10.915796 0.7221069,0.720489 1.5510732,1.267736 2.4367065,1.641742 -1.269354,5.28142 -2.6633766,16.091974 1.5186912,30.955075 -2.890047,0.493818 -5.0936066,3.003384 -5.0936066,6.03267 0,1.842507 0.8127752,3.492342 2.1015581,4.615977 C 2.0319378,71.103275 0,75.673919 0,80.953721 c 0,5.284653 2.0351759,9.852063 4.9980813,12.06372 -1.2855447,1.122018 -2.1015581,2.773473 -2.1015581,4.6176 0,3.029289 2.2003217,5.540469 5.0936066,6.034289 -4.7179815,16.76551 -2.3411811,28.37427 -1.04916,32.71015 -1.0588743,0.37077 -2.0578428,0.97306 -2.9062377,1.81822 -3.0114774,3.01309 -3.0114774,7.9027 0,10.91579 0.388578,0.38535 0.8095368,0.72373 1.2515442,1.01516 -0.6864876,0.32221 -1.3389741,0.77392 -1.9186026,1.35031 -2.41727733,2.4189 -2.63585229,6.12172 -0.4857221,8.27185 2.1517493,2.15337 5.8561904,1.93479 8.2750864,-0.4841 0.576391,-0.57477 1.026493,-1.2305 1.350308,-1.91698 0.288195,0.4404 0.626582,0.86134 1.015159,1.2483 3.013097,3.01471 7.901081,3.01471 10.915797,0 1.011921,-1.00868 1.675741,-2.23271 2.006032,-3.52796 3.372531,1.0864 9.834255,2.3007 18.688968,0.0842 0.903444,2.26023 3.105387,3.85501 5.686188,3.85501 1.84089,0 3.492342,-0.81277 4.615983,-2.09993 2.211651,2.96452 6.780678,4.99806 12.062103,4.99806 5.284653,0 9.852063,-2.03354 12.063717,-4.99644 1.122021,1.28716 2.77347,2.09994 4.61598,2.09994 2.582421,0 4.784364,-1.59317 5.687805,-3.85502 8.856333,2.21651 15.318062,1.00221 18.688972,-0.0826 0.33193,1.29364 0.99573,2.51766 2.00765,3.52634 3.01148,3.01634 7.89946,3.01634 10.91094,0 0.38859,-0.38534 0.72697,-0.8063 1.01516,-1.2483 0.32544,0.68648 0.77553,1.34059 1.35031,1.9186 2.41889,2.4189 6.12495,2.63748 8.27509,0.4841 2.15174,-2.15013 1.93317,-5.85133 -0.48573,-8.27023 -0.57639,-0.58773 -1.22564,-1.03621 -1.91374,-1.35841 z m -15.84426,-9.34853 H 21.34749 V 21.489988 h 92.52198 V 140.77688 l 0,0 z"
     style="fill:#7c2929;fill-opacity:1" /><path
     style="fill:#7c2929;fill-opacity:1"
     d="m 129.71373,150.12541 c 0.43875,-0.28821 0.85973,-0.62658 1.2483,-1.01515 3.01472,-3.0131 3.01472,-7.9027 0,-10.91256 -0.84677,-0.8484 -1.84574,-1.45069 -2.90462,-1.82146 1.29041,-4.33264 3.66721,-15.94464 -1.04753,-32.70691 2.89004,-0.49382 5.0936,-3.00177 5.0936,-6.034289 0,-1.844127 -0.81602,-3.493965 -2.10318,-4.6176 C 132.96321,90.807407 135,86.236757 135,80.952098 c 0,-5.283036 -2.03679,-9.852063 -4.9997,-12.062097 1.28716,-1.123641 2.10318,-2.773476 2.10318,-4.615983 0,-3.029286 -2.20032,-5.538852 -5.0936,-6.03267 4.18044,-14.866335 2.79128,-25.678512 1.51869,-30.958312 0.88563,-0.374015 1.71459,-0.916397 2.4367,-1.638503 3.01472,-3.014716 3.01472,-7.90108 0,-10.915795 -0.38695,-0.38859 -0.80954,-0.726963 -1.24993,-1.015161 0.68649,-0.323802 1.33736,-0.772296 1.92023,-1.351929 2.41889,-2.4172706 2.63585,-6.1233386 0.4841,-8.2734586 -2.14851,-2.15176 -5.85457,-1.9348 -8.27347,0.48248 -0.57639,0.57801 -1.02487,1.23212 -1.3503,1.9186 -0.2898,-0.44364 -0.62821,-0.86297 -1.01517,-1.25154 -3.01147,-3.0131 -7.90269,-3.0131 -10.91417,0 -0.55211,0.55048 -0.9925,1.16573 -1.34383,1.81822 -3.13939,-1.1204 -9.88121,-2.67795 -19.349558,-0.30603 -0.906678,-2.25699 -3.105381,-3.8534 -5.686188,-3.8534 -1.845741,0 -3.490722,0.81278 -4.619214,2.09994 C 77.352876,2.0351794 72.785469,-6.4921765e-7 67.499193,-6.4921765e-7 62.216151,-6.4921765e-7 57.648747,2.0351794 55.43709,4.9964594 c -1.122018,-1.28554 -2.775093,-2.09832 -4.615977,-2.09832 -2.579187,0 -4.782744,1.59641 -5.686188,3.8534 -9.474822,-2.37033 -16.211788,-0.81439 -19.351173,0.30599 -0.3481,-0.65249 -0.793346,-1.26774 -1.343831,-1.81822 -3.014716,-3.0131 -7.901081,-3.0131 -10.915797,0 -0.388576,0.38859 -0.726964,0.80954 -1.01354,1.25154 -0.323816,-0.68649 -0.775536,-1.34059 -1.350307,-1.9186 -2.4188968,-2.4189 -6.1233382,-2.63423 -8.2750873,-0.48249 -2.15013012,2.15175 -1.93155516,5.856193 0.4857222,8.2734726 0.5763903,0.579627 1.2321153,1.028112 1.9186026,1.351923 -0.4452456,0.2898 -0.8645856,0.626583 -1.2547824,1.016781 -3.0114774,3.013095 -3.0114774,7.90108 0,10.915796 0.7221069,0.720489 1.5510732,1.267736 2.4367065,1.641742 -1.269354,5.28142 -2.6633766,16.091974 1.5186912,30.955075 -2.890047,0.493818 -5.0936066,3.003384 -5.0936066,6.03267 0,1.842507 0.8127752,3.492342 2.1015581,4.615977 C 2.0319378,71.103275 0,75.673919 0,80.953721 c 0,5.284653 2.0351759,9.852063 4.9980813,12.06372 -1.2855447,1.122018 -2.1015581,2.773473 -2.1015581,4.6176 0,3.029289 2.2003217,5.540469 5.0936066,6.034289 -4.7179815,16.76551 -2.3411811,28.37427 -1.04916,32.71015 -1.0588743,0.37077 -2.0578428,0.97306 -2.9062377,1.81822 -3.0114774,3.01309 -3.0114774,7.9027 0,10.91579 0.388578,0.38535 0.8095368,0.72373 1.2515442,1.01516 -0.6864876,0.32221 -1.3389741,0.77392 -1.9186026,1.35031 -2.41727733,2.4189 -2.63585229,6.12172 -0.4857221,8.27185 2.1517493,2.15337 5.8561904,1.93479 8.2750864,-0.4841 0.576391,-0.57477 1.026493,-1.2305 1.350308,-1.91698 0.288195,0.4404 0.626582,0.86134 1.015159,1.2483 3.013097,3.01471 7.901081,3.01471 10.915797,0 1.011921,-1.00868 1.675741,-2.23271 2.006032,-3.52796 3.372531,1.0864 9.834255,2.3007 18.688968,0.0842 0.903444,2.26023 3.105387,3.85501 5.686188,3.85501 1.84089,0 3.492342,-0.81277 4.615983,-2.09993 2.211651,2.96452 6.780678,4.99806 12.062103,4.99806 5.284653,0 9.852063,-2.03354 12.063717,-4.99644 1.122021,1.28716 2.77347,2.09994 4.61598,2.09994 2.582421,0 4.784364,-1.59317 5.687805,-3.85502 8.856333,2.21651 15.318062,1.00221 18.688972,-0.0826 0.33193,1.29364 0.99573,2.51766 2.00765,3.52634 3.01148,3.01634 7.89946,3.01634 10.91094,0 0.38859,-0.38534 0.72697,-0.8063 1.01516,-1.2483 0.32544,0.68648 0.77553,1.34059 1.35031,1.9186 2.41889,2.4189 6.12495,2.63748 8.27509,0.4841 2.15174,-2.15013 1.93317,-5.85133 -0.48573,-8.27023 -0.57639,-0.58773 -1.22564,-1.03621 -1.91374,-1.35841 z m -15.84426,-9.34853 H 21.34749 V 21.489988 h 92.52198 V 140.77688 l 0,0 z"
     id="path2982"
     inkscape:connector-curvature="0" /></svg>