<svg xmlns="http://www.w3.org/2000/svg" width="135" height="202.238" viewBox="0 0 135 202.23845"><g transform="scale(3)" fill="#7c2929"><path d="M3.072 40.27s-.758 13.17 5.176 13.17h.294v4.714s-5.555-.1-6.606-10.745c0 0-.295-2.68-.422-7.267 0 0 .226-.785.814-.785.59 0 .744.912.744.912zM21.602 46.515h.785v.477h-.785z"/><path d="M36.752 48.223h-.003l-.014-.946H7.294v.99c-.11.17-.577.82-1.402 1.11v2.132h32.206v-2.132s-.954-.426-1.346-1.155zM8.92 46.174h26.205v.17H8.92zM21.977 45.163c-.204 0-.38.164-.38.368 0 .007.004.012.004.017v.455h.786v-.477c0-.202-.206-.362-.41-.362zM38.434 62.475c-14.417.065-18.733.09-32.206 0l-1.122 2.133v2.805h34.45v-2.805zM35.572 62.027v-10.1H9.09v10.1c21.61.057 5.646 0 26.482 0z"/><path d="M22.64 63.247c-15.094 2.777-7.547 1.39 0 0z"/><circle transform="matrix(.748 0 0 .748 -14.646 -4.017)" r="1.35" cy="91.681" cx="49.292"/><path d="M0 39.79h8.627v2.894H0z"/><path d="M.8 40.31h7.447v1.853H.8zM21.068 44.127l1.515.898 1.235.422-.898-.815-1.562-.96M16.98 43.614c-.11-.014-.22-.04-.33-.06.288.732.856 1.27 1.542 1.413-.535-.276-.966-.76-1.213-1.353zM18.21 39.974c-.763.152-1.384.792-1.64 1.646.09-.026.198-.054.336-.084.23-.695.702-1.256 1.305-1.562zM19.23 44.817c1.17 0 2.12-1.05 2.12-2.346 0-1.294-.95-2.344-2.12-2.344-.84 0-1.56.547-1.903 1.334.35-.05.775-.082 1.244-.055 1.246.076 2.106.168 2.106 1.066 0 .62-.845.87-.845.87s-1.073.393-2.42.314c.37.693 1.043 1.163 1.82 1.163z"/><path d="M5.386 44.772c.8.59 4.335-.125 4.335-.125l6.565-1.39c1.726.337 3.324-.126 3.324-.126s.785-.237.785-.575c0-.673-.617-.812-1.824-.87-1.224-.055-2.327.31-2.327.31s-2.356.42-5.64 1.05c-2.4.463-3.02.047-3.182-.21-.058-.093-.057-.167-.057-.167H4.418l.003.054c.046.894.183 1.474.966 2.05zM4.32 35.093v4.658h3.31V37.06M7.827 36.566l6.537-3.604-3.255-4.097-6.313 5.767M11.614 28.36l1.01-.84 3.423 4.43-1.18.618M13.13 27.077l.988-1.01 3.787 4.924-1.305.61M14.53 25.61l.394.618s8.64-9.23 8.052-23.285c0 0-1.515-4.124-2.61-2.61 0 0 .955 18.574-5.835 25.278z"/><path d="M15.19 26.51l.548.756s9.132-6.522 13.046-17.59c0 0-1.178-4.124-3.45-5.64 0 0-.673-.504-1.936-1.008 0 0 1.556 11.782-8.207 23.48zM18.515 30.746l-.428-.492s10.896-6.413 24.482-2.762c0 0 3.692 2.38 1.975 3.116 0 0-18.003-5.02-26.03.138z"/><path d="M17.872 29.933l-.62-.7s8.164-7.1 19.666-9.064c0 0 4.118 2.234 5.1 4.783 0 0 .344.767.56 2.11.003 0-11.154-4.098-24.706 2.87z"/><path d="M16.075 27.603l.84 1.18s9.736-8.053 19.555-9.288c0 0-1.29-3.675-3.31-6.03-2.02-2.358-3.956-3.368-3.956-3.368s-2.02 8.67-13.13 17.506z"/></g></svg>