<svg xmlns="http://www.w3.org/2000/svg" width="101.187" height="287.562" viewBox="0 0 101.187 287.56201"><g fill="#7c2929"><path d="M50.49 164.59h.192c-.33 0-.666-.004-1-.01.277.01.547.01.808.01zM47.562 261.81c-1.137 1.67-6.456 2.544-6.684 4.548-.312 2.724 4.662 5.058 9.717 5.058 5.055 0 10.03-2.33 9.714-5.058-.23-2.004-5.548-2.877-6.685-4.548v-1.794h-6.063v1.794z"/><path d="M56.15 102.288V77.475s37.807-.957 45.037-10.38L84.963 6.573C83.445 1.543 59.187 0 50.595 0c-8.592 0-32.853 1.542-34.368 6.573L0 67.093c7.23 9.422 45.04 10.38 45.04 10.38v24.812c.88.888 2.525.82 2.525.82s-7.512 4.967-6.066 10.616c1.808 7.06 6.065 12.13 6.065 12.13v134.166h6.063V125.853s4.254-5.073 6.063-12.13c1.45-5.645-6.062-10.616-6.062-10.616s1.638.07 2.523-.82zm-13.472 9.12c.474-2.367 5.07-6.966 5.07-6.966s-2.985 4.81-3.363 7.3c-.378 2.51 4.407 13.74 3.81 13.457-1.45-.694-5.988-11.425-5.517-13.792zm7.917 16.062c-1.644 0-2.4-.606-2.4-.606h4.93c-.004.003-.89.606-2.53.606zm0-23.41c-1.644 0-2.4-.602-2.4-.602h4.93c-.004 0-.89.603-2.53.603zm0-24.338c-2.145 0-4.728-1.51-4.728-1.51l4.734.244 4.72-.243s-1.575 1.51-4.725 1.51zM60.31 266.358c.31 2.724-4.663 5.058-9.715 5.058-5.055 0-10.03-2.33-9.717-5.058.228-2.004 5.547-2.877 6.684-4.548v-1.794s-22.746 4.548-27.294 11.397c-4.05 6.1.756 9.828 3.033 11.346 2.275 1.517 19.966 4.802 27.295 4.802 8.844 0 21.747-2.604 24.687-4.296 3.867-2.226 8.166-5.307 3.867-12.132-3.004-4.77-25.525-11.118-25.525-11.118v1.794c1.137 1.67 6.456 2.544 6.684 4.548zm19.283 9.327v1.986s-18.858 3.322-28.932 3.322c-10.067 0-30.773-3.32-30.773-3.32v-1.987s22.584 3.23 30.774 3.23c8.194.004 28.933-3.23 28.933-3.23z"/></g></svg>