<svg xmlns="http://www.w3.org/2000/svg" width="91.647" height="147.995" viewBox="0 0 91.647001 147.99455" enable-background="new 0 0 63.448 100"><path d="M91.647 75.19c0-23.18-8.874-43.47-22.15-54.647.77.2 1.638.12 2.34-.463 1.04-.864 1.252-3.567.077-4.778-.578-.595-1.47-1.197-2.708-1.576.312-.2.598-.412.83-.637 2.405-2.324 3.277-5.662 2.1-7.61-1.893-3.133-6.915-2.02-7.82.427-1.456 3.946 1.97 5.043 1.187 6.187-.445.65-3.952.825-6.766-.284-.945-.372-2.246-1.452-3.634-2.578.673.105 1.48.046 2.467-.32 2.447-.903 3.56-5.925.427-7.818-1.325-.8-3.29-.633-5.147.3-.084-.157-.18-.312-.3-.458-.865-1.04-2.683-1.256-4.156-.433-1.033.577-2.043 2.486-2.253 4.653-.083.852-.093 1.768-.054 2.623l-.04.093c.03-.8.013-1.642-.063-2.43-.21-2.168-1.22-4.075-2.254-4.654-1.473-.822-3.29-.608-4.154.432-.122.147-.22.302-.303.46-1.854-.933-3.82-1.1-5.144-.3-3.134 1.893-2.022 6.915.424 7.818.6.22 1.125.32 1.603.35-1.24 1.005-2.39 1.922-3.245 2.26-2.814 1.108-6.32.934-6.766.284-.786-1.144 2.643-2.24 1.185-6.187-.903-2.448-5.925-3.56-7.818-.427-1.176 1.948-.306 5.286 2.1 7.61.232.224.518.436.83.636-1.236.38-2.128.98-2.706 1.574-1.176 1.21-.964 3.914.076 4.78.702.583 1.57.663 2.337.462C8.873 31.72 0 52.01 0 75.187c0 30.678 15.548 56.29 36.267 62.414-1.052.05-1.99.19-2.66.308-1.08.195-3.232-2.128-4.787-.272-1.356 1.616-.13 3.632 1.95 3.753 1.987.12 5.4-1.604 6.938-1.617 2.156-.02 4.447.996 4.577 1.54.23.965-2.332.816-2.37 3.82-.024 1.857 3.036 3.88 5.098 2.282.58-.453.943-1.21 1.084-2.096.14.886.502 1.642 1.082 2.095 2.06 1.6 5.12-.425 5.097-2.283-.038-3.003-2.6-2.856-2.37-3.818.128-.544 2.42-1.558 4.577-1.54 1.537.014 4.95 1.736 6.94 1.615 2.08-.122 3.302-2.138 1.947-3.754-1.553-1.858-3.702.467-4.786.272-.774-.14-1.91-.3-3.165-.316 20.7-6.143 36.227-31.744 36.227-62.403zM66.33 14.93c1.567-.084 3.066.348 3.16.693.187.678-1.896.844-1.917 3.04 0 .132.027.265.07.397-1.842-1.392-3.765-2.606-5.75-3.643 1.56.05 3.09-.132 4.436-.488zM48.374 3.166c.402-.112.63.574 1.205 1.157-.285.492-.532 1.068-.744 1.69-.413.03-.803.124-1.158.276-.074-1.553.355-3.03.697-3.123zm-2.48 6.498c.034.158.075.318.13.48.164.475.394.825.665 1.1.015.05.038.11.055.16-.308-.008-.612-.032-.922-.032-.115 0-.23.01-.344.012.08-.264.152-.502.205-.683.082-.282.153-.636.21-1.037zM43.75 3.453c.338.094.763 1.544.7 3.08-.368-.23-.79-.393-1.25-.475-.196-.525-.41-1.02-.657-1.448.573-.583.803-1.27 1.206-1.157zm-21.594 12.17c.095-.344 1.595-.775 3.162-.692 1.347.357 2.876.538 4.435.488-1.986 1.037-3.908 2.25-5.752 3.644.045-.132.075-.264.074-.395-.023-2.2-2.104-2.366-1.918-3.043zM46.63 141.816c-.276.59-.447 1.203-.536 1.802-.09-.6-.26-1.212-.538-1.802-.492-1.058-1.787-2.206-3.428-3.037 1.22.137 2.45.224 3.693.224 1.48 0 2.936-.106 4.38-.295-1.71.834-3.063 2.02-3.57 3.108zm-.807-4.792c-24.033 0-43.516-27.698-43.516-61.86 0-31.746 16.822-57.892 38.485-61.44-.1.357-.2.716-.335 1.06-.25.63-.033 1.01.392 1.132-.223.33-.41.583-.52.71-1.057 1.236 2.358.81 3.542-1.326.358-.646.663-1.323.918-1.963.344-.012.686-.036 1.03-.036.552 0 1.1.03 1.643.06.23.548.486 1.11.788 1.653 1.184 2.137 4.597 2.564 3.54 1.327-.11-.127-.294-.38-.517-.71.426-.124.64-.504.392-1.133-.085-.217-.142-.442-.213-.663 21.37 3.927 37.885 29.878 37.885 61.33.002 34.16-19.483 61.86-43.514 61.86z" fill="#7c2929"/></svg>