<svg xmlns="http://www.w3.org/2000/svg" width="138.5" height="105.882" viewBox="0 0 138.50001 105.88187"><g fill="#7c2929"><path d="M1.353 7.64H137.14c0 .002 2.148.002 1.045-3.46l-.23-.722S136.856 0 134.71 0H3.633S1.488 0 .438 3.515l-.18.61S-.006 4.998 0 5.876v.006C.006 6.76.28 7.64 1.353 7.64zM133.697 81.518h-7.81V84.1c9.71 6.098 2.674 21.782 2.674 21.782h3.155c9.364-19.166 1.982-24.364 1.982-24.364zM12.208 84.1v-2.582H4.396s-7.385 5.198 1.985 24.364h3.15S2.494 90.202 12.21 84.1zM125.898 10.918h7.68V68.1h-7.68zM15.134 81.49v2.327c1.29 2.41 7.348 3.825 15.2 3.825 3.58 0 9.99-1.046 16.055-1.81 7.127-.712 11.8 1.708 13.397 2.027 2.452.59 5.665 1.496 9.375 1.496 3.707 0 6.926-.91 9.374-1.497 1.597-.32 6.273-2.745 13.398-2.027 6.064.763 12.476 1.81 16.057 1.81 7.852 0 13.91-1.417 15.2-3.826V81.49H15.134zM132.596 70.96H5.733c-2.12 0-3.84 1.716-3.84 3.84 0 2.123 1.72 3.84 3.84 3.84h126.863c2.12 0 3.835-1.717 3.835-3.84 0-2.124-1.72-3.84-3.834-3.84zM123.193 40.964H15.133V68.1h108.06V40.965zM76.75 58.677c-2.406 0-5.077-1.612-7.588-3.332-2.514 1.717-5.21 3.332-7.59 3.332-2.964 0-5.45-1.984-5.45-4.708 0-.423.082-.903.24-1.43l.794.21c-.105.396-.184.818-.184 1.22 0 2.246 2.116 3.91 4.603 3.91 2.116 0 4.572-1.4 6.9-3.012l-.74-.555c-2.246-1.563-4.44-3.117-5.842-3.117-1.188 0-2.09.928-2.09 2.09 0 1.186.928 2.114 2.09 2.114v.797c-1.64 0-2.934-1.297-2.934-2.91 0-1.583 1.268-2.883 2.933-2.883 1.693 0 3.887 1.562 6.32 3.28l.95.712.953-.686c2.433-1.72 4.65-3.31 6.347-3.31 1.664 0 2.907 1.296 2.907 2.885 0 1.61-1.27 2.907-2.907 2.907v-.797c1.16 0 2.06-.925 2.06-2.118 0-1.16-.87-2.09-2.06-2.09-1.43 0-3.597 1.537-5.87 3.15l-.713.526c2.328 1.586 4.758 3.01 6.874 3.01 2.485 0 4.603-1.665 4.603-3.938 0-.425-.055-.818-.16-1.187l.792-.215c.156.503.208.956.208 1.402 0 2.758-2.485 4.742-5.447 4.742zM4.75 10.918h7.678V68.1H4.75zM123.193 10.98H15.133v27.135h108.06V10.98zM76.75 28.688c-2.406 0-5.077-1.612-7.588-3.332-2.514 1.72-5.21 3.332-7.59 3.332-2.964 0-5.45-1.987-5.45-4.71 0-.426.082-.9.24-1.43l.794.215c-.105.396-.184.818-.184 1.214 0 2.247 2.116 3.914 4.603 3.914 2.116 0 4.572-1.4 6.9-3.01l-.74-.554c-2.246-1.563-4.44-3.122-5.842-3.122-1.188 0-2.09.925-2.09 2.09 0 1.19.928 2.12 2.09 2.12v.79c-1.64 0-2.934-1.296-2.934-2.91 0-1.585 1.268-2.882 2.933-2.882 1.693 0 3.887 1.562 6.32 3.277l.95.712.953-.687c2.433-1.72 4.65-3.306 6.347-3.306 1.664 0 2.907 1.294 2.907 2.883 0 1.612-1.27 2.907-2.907 2.907v-.79c1.16 0 2.06-.927 2.06-2.12 0-1.164-.87-2.09-2.06-2.09-1.43 0-3.597 1.534-5.87 3.15l-.713.526c2.328 1.586 4.758 3.015 6.874 3.015 2.485 0 4.603-1.666 4.603-3.94 0-.424-.055-.817-.16-1.19l.792-.214c.156.503.208.954.208 1.402 0 2.753-2.485 4.74-5.447 4.74z"/></g></svg>