<?xml version="1.0" encoding="UTF-8" standalone="no"?>
<svg
   xmlns:dc="http://purl.org/dc/elements/1.1/"
   xmlns:cc="http://creativecommons.org/ns#"
   xmlns:rdf="http://www.w3.org/1999/02/22-rdf-syntax-ns#"
   xmlns:svg="http://www.w3.org/2000/svg"
   xmlns="http://www.w3.org/2000/svg"
   xmlns:sodipodi="http://sodipodi.sourceforge.net/DTD/sodipodi-0.dtd"
   xmlns:inkscape="http://www.inkscape.org/namespaces/inkscape"
   version="1.1"
   id="Layer_1"
   x="0px"
   y="0px"
   width="135"
   height="202.23845"
   viewBox="0 0 135 202.23845"
   enable-background="new 0 0 100 100"
   xml:space="preserve"
   inkscape:version="0.48.4 r9939"
   sodipodi:docname="gramophone.svg"><metadata
     id="metadata57"><rdf:RDF><cc:Work
         rdf:about=""><dc:format>image/svg+xml</dc:format><dc:type
           rdf:resource="http://purl.org/dc/dcmitype/StillImage" /><dc:title /></cc:Work></rdf:RDF></metadata><defs
     id="defs55" /><sodipodi:namedview
     pagecolor="#ffffff"
     bordercolor="#666666"
     borderopacity="1"
     objecttolerance="10"
     gridtolerance="10"
     guidetolerance="10"
     inkscape:pageopacity="0"
     inkscape:pageshadow="2"
     inkscape:window-width="1440"
     inkscape:window-height="755"
     id="namedview53"
     showgrid="false"
     fit-margin-top="0"
     fit-margin-left="0"
     fit-margin-right="0"
     fit-margin-bottom="0"
     inkscape:zoom="1.668772"
     inkscape:cx="27.606392"
     inkscape:cy="67.86921"
     inkscape:window-x="-2"
     inkscape:window-y="-3"
     inkscape:window-maximized="1"
     inkscape:current-layer="Layer_1" /><g
     id="g3059"
     transform="scale(3,3)"><path
       inkscape:connector-curvature="0"
       id="path3"
       d="m 3.0715529,40.269921 c 0,0 -0.7576048,13.170957 5.1760944,13.170957 H 8.542313 v 4.713155 c 0,0 -5.5552708,-0.09872 -6.6067934,-10.744826 0,0 -0.2946657,-2.678915 -0.4210578,-7.266426 0,0 0.2251126,-0.785276 0.813696,-0.785276 0.5893314,0 0.7433951,0.912416 0.7433951,0.912416 z"
       style="fill:#7c2929;fill-opacity:1" /><rect
       id="rect5"
       height="0.47714898"
       width="0.78527653"
       y="46.51474"
       x="21.601835"
       style="fill:#7c2929;fill-opacity:1" /><path
       inkscape:connector-curvature="0"
       id="path7"
       d="m 36.75169,48.222903 h -0.0022 L 36.73603,47.276832 H 7.2940971 v 0.989448 c -0.1114345,0.171265 -0.5773652,0.819679 -1.4022795,1.111353 v 2.131465 H 38.097878 v -2.131465 c -7.48e-4,7.48e-4 -0.95355,-0.425545 -1.346188,-1.15473 z"
       style="fill:#7c2929;fill-opacity:1" /><rect
       id="rect9"
       height="0.16902143"
       width="26.203556"
       y="46.174454"
       x="8.9207401"
       style="fill:#7c2929;fill-opacity:1" /><path
       inkscape:connector-curvature="0"
       id="path11"
       d="m 21.976525,45.162568 c -0.203424,0 -0.379176,0.164534 -0.379176,0.367958 0,0.006 0.0037,0.01122 0.0037,0.01645 v 0.455461 h 0.785276 v -0.477149 c 7.48e-4,-0.201928 -0.206415,-0.362723 -0.409839,-0.362723 z"
       style="fill:#7c2929;fill-opacity:1" /><path
       sodipodi:nodetypes="ccccccc"
       inkscape:connector-curvature="0"
       id="path13"
       d="m 38.434425,62.475298 c -14.417489,0.06465 -18.733395,0.09104 -32.2068082,0 l -1.1218237,2.132213 0,2.805307 34.4504559,0 0,-2.805307 z"
       style="fill:#7c2929;fill-opacity:1" /><path
       sodipodi:nodetypes="ccccc"
       inkscape:connector-curvature="0"
       id="path15"
       d="m 35.572279,62.026569 0,-10.098657 -26.4825161,0 0,10.099404 c 21.6097921,0.05648 5.6458611,-7.47e-4 26.4825161,-7.47e-4 z"
       style="fill:#7c2929;fill-opacity:1" /><path
       sodipodi:nodetypes="cc"
       inkscape:connector-curvature="0"
       id="path17"
       d="m 22.639157,63.24711 c -15.0927714,2.777139 -7.546386,1.38857 0,0 z"
       style="fill:#7c2929;fill-opacity:1" /><circle
       transform="matrix(0.74788242,0,0,0.74788242,-14.645781,-4.0166846)"
       sodipodi:ry="1.35"
       sodipodi:rx="1.35"
       sodipodi:cy="91.681"
       sodipodi:cx="49.292"
       id="circle19"
       r="1.35"
       cy="91.681"
       cx="49.292"
       style="fill:#7c2929;fill-opacity:1"
       d="m 50.642,91.681 c 0,0.745584 -0.604416,1.35 -1.35,1.35 -0.745585,0 -1.35,-0.604416 -1.35,-1.35 0,-0.745585 0.604415,-1.35 1.35,-1.35 0.745584,0 1.35,0.604415 1.35,1.35 z" /><rect
       style="fill:#7c2929;fill-opacity:1"
       id="rect21"
       height="2.894305"
       width="8.6268234"
       y="39.789783"
       x="0" /><rect
       id="rect23"
       height="1.8517569"
       width="7.4481606"
       y="40.311054"
       x="0.79948652"
       style="fill:#7c2929;fill-opacity:1" /><polyline
       transform="matrix(0.74788242,0,0,0.74788242,-14.645781,-4.0166846)"
       id="polyline25"
       points="47.753,64.374 49.779,65.574 51.43,66.138 50.229,65.048 48.141,63.766 "
       style="fill:#7c2929;fill-opacity:1" /><path
       inkscape:connector-curvature="0"
       id="path27"
       d="m 16.979175,43.613703 c -0.108443,-0.01346 -0.219878,-0.03964 -0.330564,-0.05983 0.28943,0.732177 0.857821,1.269156 1.543629,1.413498 -0.535484,-0.276717 -0.966264,-0.759101 -1.213065,-1.353668 z"
       style="fill:#7c2929;fill-opacity:1" /><path
       inkscape:connector-curvature="0"
       id="path29"
       d="m 18.210937,39.97376 c -0.764336,0.15182 -1.385078,0.792007 -1.640106,1.646089 0.089,-0.02543 0.197441,-0.05385 0.335051,-0.08376 0.228852,-0.695531 0.702262,-1.256442 1.305055,-1.562326 z"
       style="fill:#7c2929;fill-opacity:1" /><path
       inkscape:connector-curvature="0"
       id="path31"
       d="m 19.231049,44.817046 c 1.169688,0 2.118003,-1.049279 2.118003,-2.346107 0,-1.294584 -0.948315,-2.345359 -2.118003,-2.345359 -0.841368,0 -1.562327,0.54745 -1.904109,1.334222 0.350757,-0.05011 0.775554,-0.08227 1.244476,-0.0546 1.244477,0.07554 2.104541,0.167525 2.104541,1.065732 0,0.619995 -0.845107,0.869787 -0.845107,0.869787 0,0 -1.073959,0.391891 -2.419399,0.313363 0.367958,0.693287 1.041052,1.162957 1.819598,1.162957 z"
       style="fill:#7c2929;fill-opacity:1" /><path
       inkscape:connector-curvature="0"
       id="path33"
       d="m 5.386249,44.772173 c 0.7994863,0.588584 4.3347267,-0.125644 4.3347267,-0.125644 L 16.28514,43.256963 c 1.726112,0.337295 3.324337,-0.126392 3.324337,-0.126392 0,0 0.785277,-0.237826 0.785277,-0.575121 0,-0.673094 -0.616256,-0.812948 -1.823338,-0.86904 -1.225779,-0.05684 -2.328906,0.30738 -2.328906,0.30738 0,0 -2.355829,0.421058 -5.639033,1.052271 -2.4014505,0.462191 -3.021445,0.04637 -3.1822399,-0.210155 -0.059083,-0.09423 -0.058335,-0.168274 -0.058335,-0.168274 h -2.945161 c 7.479e-4,0.0187 0.00224,0.0359 0.00374,0.0546 0.044873,0.893719 0.1817354,1.473328 0.9647683,2.049945 z"
       style="fill:#7c2929;fill-opacity:1" /><polygon
       transform="matrix(0.74788242,0,0,0.74788242,-14.645781,-4.0166846)"
       id="polygon35"
       points="25.36,52.294 25.36,58.522 29.786,58.522 29.786,54.921 "
       style="fill:#7c2929;fill-opacity:1" /><polygon
       transform="matrix(0.74788242,0,0,0.74788242,-14.645781,-4.0166846)"
       id="polygon37"
       points="30.048,54.264 38.789,49.444 34.437,43.967 25.997,51.677 "
       style="fill:#7c2929;fill-opacity:1" /><polyline
       transform="matrix(0.74788242,0,0,0.74788242,-14.645781,-4.0166846)"
       id="polyline39"
       points="35.112,43.292 36.463,42.167 41.039,48.093 39.463,48.918 "
       style="fill:#7c2929;fill-opacity:1" /><polyline
       transform="matrix(0.74788242,0,0,0.74788242,-14.645781,-4.0166846)"
       id="polyline41"
       points="37.138,41.576 38.46,40.225 43.524,46.809 41.779,47.625 "
       style="fill:#7c2929;fill-opacity:1" /><path
       inkscape:connector-curvature="0"
       id="path43"
       d="m 14.531355,25.611426 0.392639,0.617003 c 0,0 8.641033,-9.230365 8.051702,-23.2853198 0,0 -1.514462,-4.1238236 -2.608614,-2.60861382 0,0 0.95355,18.57216462 -5.835727,25.27693062 z"
       style="fill:#7c2929;fill-opacity:1" /><path
       inkscape:connector-curvature="0"
       id="path45"
       d="m 15.190988,26.508885 0.54745,0.757604 c 0,0 9.131644,-6.522282 13.045313,-17.590194 0,0 -1.177915,-4.123824 -3.45073,-5.6390338 0,0 -0.672346,-0.5048206 -1.935519,-1.0096413 -7.48e-4,0 1.556343,11.7821401 -8.206514,23.4812651 z"
       style="fill:#7c2929;fill-opacity:1" /><path
       inkscape:connector-curvature="0"
       id="path47"
       d="m 18.515325,30.745638 -0.428537,-0.492106 c 0,0 10.896647,-6.412344 24.482679,-2.76193 0,0 3.692296,2.381258 1.975158,3.116426 7.48e-4,-7.48e-4 -18.002278,-5.020535 -26.0293,0.13761 z"
       style="fill:#7c2929;fill-opacity:1" /><path
       inkscape:connector-curvature="0"
       id="path49"
       d="m 17.872146,29.93269 -0.619994,-0.700018 c 0,0 8.163884,-7.100395 19.665568,-9.063587 0,0 4.118588,2.234673 5.099062,4.783456 0,0 0.344774,0.767328 0.562408,2.109777 0.0015,0 -11.155414,-4.0969 -24.707044,2.870372 z"
       style="fill:#7c2929;fill-opacity:1" /><path
       inkscape:connector-curvature="0"
       id="path51"
       d="m 16.074985,27.603037 0.841367,1.178662 c 0,0 9.734438,-8.051702 19.554134,-9.286456 0,0 -1.290845,-3.675094 -3.311623,-6.031671 -2.019283,-2.356578 -3.954802,-3.366219 -3.954802,-3.366219 0,0 -2.020031,8.668705 -13.129076,17.505684 z"
       style="fill:#7c2929;fill-opacity:1" /></g></svg>