<?xml version="1.0" encoding="UTF-8" standalone="no"?>
<svg
   xmlns:dc="http://purl.org/dc/elements/1.1/"
   xmlns:cc="http://creativecommons.org/ns#"
   xmlns:rdf="http://www.w3.org/1999/02/22-rdf-syntax-ns#"
   xmlns:svg="http://www.w3.org/2000/svg"
   xmlns="http://www.w3.org/2000/svg"
   xmlns:sodipodi="http://sodipodi.sourceforge.net/DTD/sodipodi-0.dtd"
   xmlns:inkscape="http://www.inkscape.org/namespaces/inkscape"
   version="1.1"
   id="Layer_1"
   x="0px"
   y="0px"
   width="45"
   height="53.969139"
   viewBox="0 0 45.000001 53.969139"
   enable-background="new 0 0 100 100"
   xml:space="preserve"
   inkscape:version="0.48.4 r9939"
   sodipodi:docname="artwork.svg"><metadata
     id="metadata13"><rdf:RDF><cc:Work
         rdf:about=""><dc:format>image/svg+xml</dc:format><dc:type
           rdf:resource="http://purl.org/dc/dcmitype/StillImage" /></cc:Work></rdf:RDF></metadata><defs
     id="defs11" /><sodipodi:namedview
     pagecolor="#ffffff"
     bordercolor="#666666"
     borderopacity="1"
     objecttolerance="10"
     gridtolerance="10"
     guidetolerance="10"
     inkscape:pageopacity="0"
     inkscape:pageshadow="2"
     inkscape:window-width="1440"
     inkscape:window-height="755"
     id="namedview9"
     showgrid="false"
     fit-margin-top="0"
     fit-margin-left="0"
     fit-margin-right="0"
     fit-margin-bottom="0"
     inkscape:zoom="3.337544"
     inkscape:cx="-3.9171076"
     inkscape:cy="30.62225"
     inkscape:window-x="-2"
     inkscape:window-y="-3"
     inkscape:window-maximized="1"
     inkscape:current-layer="Layer_1" /><path
     inkscape:connector-curvature="0"
     id="path7"
     d="m 43.237909,50.041805 c 0.146252,-0.09607 0.286576,-0.208861 0.416101,-0.338386 1.004905,-1.004365 1.004905,-2.634233 0,-3.637519 -0.282258,-0.282799 -0.615247,-0.483564 -0.968206,-0.607153 0.430135,-1.444214 1.222402,-5.31488 -0.349179,-10.902304 0.963349,-0.164606 1.697869,-1.000588 1.697869,-2.011429 0,-0.614709 -0.272006,-1.164655 -0.70106,-1.5392 0.987636,-0.736678 1.666567,-2.260228 1.666567,-4.021781 0,-1.761012 -0.678931,-3.284021 -1.666567,-4.020699 0.429054,-0.374547 0.70106,-0.924492 0.70106,-1.538661 0,-1.009762 -0.733441,-1.846284 -1.697869,-2.01089 1.393483,-4.955445 0.930428,-8.559504 0.50623,-10.3194374 0.295211,-0.1246717 0.571533,-0.3054656 0.812235,-0.5461677 1.004905,-1.0049052 1.004905,-2.6336932 0,-3.6385982 -0.128982,-0.12953 -0.269846,-0.242321 -0.416642,-0.338387 0.22883,-0.107934 0.445786,-0.257432 0.640075,-0.450643 0.806298,-0.805757 0.878616,-2.041112 0.161367,-2.757821 -0.71617,-0.71725101 -1.951523,-0.64493201 -2.757823,0.160828 -0.19213,0.19267 -0.341624,0.410705 -0.450102,0.639534 -0.0966,-0.147882 -0.2094,-0.287656 -0.338387,-0.417181 -1.003825,-1.00436601 -2.634232,-1.00436601 -3.638059,0 -0.184035,0.183494 -0.330831,0.388576 -0.447944,0.606073 -1.046462,-0.373467 -3.293735,-0.892649 -6.449851,-0.10201 -0.302226,-0.75233 -1.035127,-1.28446501 -1.895396,-1.28446501 -0.615247,0 -1.163574,0.27092501 -1.539738,0.69997901 C 25.784292,0.67839169 24.261823,-3.0601177e-7 22.499731,-3.0601177e-7 20.738717,-3.0601177e-7 19.216249,0.67839169 18.47903,1.6654867 18.105024,1.2369727 17.553999,0.96604769 16.940371,0.96604769 c -0.859729,0 -1.594248,0.53213601 -1.895396,1.28446601 C 11.886701,1.4604047 9.6410455,1.9790487 8.5945841,2.3525087 8.4785507,2.1350137 8.3301353,1.9299307 8.1466402,1.7464357 7.141735,0.74206969 5.5129467,0.74206969 4.5080414,1.7464357 4.3785159,1.8759657 4.2657201,2.0162817 4.1701947,2.1636167 4.062256,1.9347877 3.9116826,1.7167527 3.7200922,1.5240827 2.9137934,0.71778369 1.6789796,0.64600569 0.96172991,1.3632547 c -0.71671005,0.71725 -0.64385173,1.952063 0.16190739,2.757823 0.1921301,0.193209 0.4107051,0.342704 0.6395342,0.450641 -0.1484152,0.0966 -0.2881952,0.208861 -0.4182608,0.338927 -1.00382579,1.004365 -1.00382579,2.6336934 0,3.6385986 0.2407023,0.240163 0.5170244,0.4225788 0.8122355,0.5472475 -0.423118,1.7604732 -0.8877922,5.3639912 0.5062304,10.3183582 -0.963349,0.164606 -1.69786886,1.001128 -1.69786886,2.01089 0,0.614169 0.27092506,1.164114 0.70051936,1.538659 C 0.67731259,23.701092 0,25.22464 0,26.984574 c 0,1.761551 0.67839198,3.284021 1.6660271,4.02124 -0.4285149,0.374006 -0.70051936,0.924491 -0.70051936,1.5392 0,1.009762 0.73344056,1.846823 1.69786886,2.011429 -1.5726605,5.588504 -0.7803937,9.45809 -0.34972,10.903383 -0.3529581,0.12359 -0.6859476,0.324355 -0.9687459,0.606074 -1.00382579,1.004365 -1.00382579,2.634232 0,3.638598 0.129526,0.128449 0.2698456,0.241242 0.4171814,0.338387 -0.2288292,0.107401 -0.4463247,0.257973 -0.6395342,0.450102 -0.80575911,0.806299 -0.87861743,2.040573 -0.16190738,2.757284 0.71724978,0.717788 1.95206348,0.64493 2.75836228,-0.161369 0.1921301,-0.19159 0.3421643,-0.410164 0.4501026,-0.638993 0.096065,0.1468 0.2088605,0.287115 0.3383864,0.416101 1.0043655,1.004905 2.6336936,1.004905 3.6385989,0 0.337307,-0.336228 0.5585804,-0.744235 0.6686774,-1.175987 1.124177,0.362133 3.2780849,0.766901 6.2296559,0.02807 0.301148,0.753409 1.035129,1.285005 1.895396,1.285005 0.61363,0 1.164114,-0.270924 1.538661,-0.699979 0.737217,0.988174 2.260226,1.666021 4.020701,1.666021 1.761551,0 3.284021,-0.677847 4.021239,-1.665481 0.374007,0.429054 0.92449,0.69998 1.53866,0.69998 0.860807,0 1.594788,-0.531057 1.895935,-1.285006 2.952111,0.738838 5.106019,0.334069 6.229657,-0.02752 0.110644,0.431214 0.33191,0.839221 0.669217,1.175448 1.003825,1.005446 2.633154,1.005446 3.636979,0 0.12953,-0.128449 0.242323,-0.268766 0.338387,-0.416102 0.108482,0.228829 0.258512,0.446865 0.450104,0.639535 0.806298,0.806298 2.041651,0.879161 2.758362,0.161366 0.717249,-0.716709 0.644391,-1.950444 -0.161908,-2.756743 -0.192131,-0.195909 -0.408546,-0.345402 -0.637915,-0.452802 z M 37.95649,46.925628 H 7.1158299 V 7.1633297 H 37.95649 V 46.925628 l 0,0 z"
     style="fill:#7c2929;fill-opacity:1" /><path
     style="fill:#7c2929;fill-opacity:1"
     d="m 43.237909,50.041805 c 0.146252,-0.09607 0.286576,-0.208861 0.416101,-0.338386 1.004905,-1.004365 1.004905,-2.634233 0,-3.637519 -0.282258,-0.282799 -0.615247,-0.483564 -0.968206,-0.607153 0.430135,-1.444214 1.222402,-5.31488 -0.349179,-10.902304 0.963349,-0.164606 1.697869,-1.000588 1.697869,-2.011429 0,-0.614709 -0.272006,-1.164655 -0.70106,-1.5392 0.987636,-0.736678 1.666567,-2.260228 1.666567,-4.021781 0,-1.761012 -0.678931,-3.284021 -1.666567,-4.020699 0.429054,-0.374547 0.70106,-0.924492 0.70106,-1.538661 0,-1.009762 -0.733441,-1.846284 -1.697869,-2.01089 1.393483,-4.955445 0.930428,-8.559504 0.50623,-10.3194374 0.295211,-0.1246717 0.571533,-0.3054656 0.812235,-0.5461677 1.004905,-1.0049052 1.004905,-2.6336932 0,-3.6385982 -0.128982,-0.12953 -0.269846,-0.242321 -0.416642,-0.338387 0.22883,-0.107934 0.445786,-0.257432 0.640075,-0.450643 0.806298,-0.805757 0.878616,-2.041112 0.161367,-2.757821 -0.71617,-0.71725101 -1.951523,-0.64493201 -2.757823,0.160828 -0.19213,0.19267 -0.341624,0.410705 -0.450102,0.639534 -0.0966,-0.147882 -0.2094,-0.287656 -0.338387,-0.417181 -1.003825,-1.00436601 -2.634232,-1.00436601 -3.638059,0 -0.184035,0.183494 -0.330831,0.388576 -0.447944,0.606073 -1.046462,-0.373467 -3.293735,-0.892649 -6.449851,-0.10201 -0.302226,-0.75233 -1.035127,-1.28446501 -1.895396,-1.28446501 -0.615247,0 -1.163574,0.27092501 -1.539738,0.69997901 C 25.784292,0.67839169 24.261823,-3.0601177e-7 22.499731,-3.0601177e-7 20.738717,-3.0601177e-7 19.216249,0.67839169 18.47903,1.6654867 18.105024,1.2369727 17.553999,0.96604769 16.940371,0.96604769 c -0.859729,0 -1.594248,0.53213601 -1.895396,1.28446601 C 11.886701,1.4604047 9.6410455,1.9790487 8.5945841,2.3525087 8.4785507,2.1350137 8.3301353,1.9299307 8.1466402,1.7464357 7.141735,0.74206969 5.5129467,0.74206969 4.5080414,1.7464357 4.3785159,1.8759657 4.2657201,2.0162817 4.1701947,2.1636167 4.062256,1.9347877 3.9116826,1.7167527 3.7200922,1.5240827 2.9137934,0.71778369 1.6789796,0.64600569 0.96172991,1.3632547 c -0.71671005,0.71725 -0.64385173,1.952063 0.16190739,2.757823 0.1921301,0.193209 0.4107051,0.342704 0.6395342,0.450641 -0.1484152,0.0966 -0.2881952,0.208861 -0.4182608,0.338927 -1.00382579,1.004365 -1.00382579,2.6336934 0,3.6385986 0.2407023,0.240163 0.5170244,0.4225788 0.8122355,0.5472475 -0.423118,1.7604732 -0.8877922,5.3639912 0.5062304,10.3183582 -0.963349,0.164606 -1.69786886,1.001128 -1.69786886,2.01089 0,0.614169 0.27092506,1.164114 0.70051936,1.538659 C 0.67731259,23.701092 0,25.22464 0,26.984574 c 0,1.761551 0.67839198,3.284021 1.6660271,4.02124 -0.4285149,0.374006 -0.70051936,0.924491 -0.70051936,1.5392 0,1.009762 0.73344056,1.846823 1.69786886,2.011429 -1.5726605,5.588504 -0.7803937,9.45809 -0.34972,10.903383 -0.3529581,0.12359 -0.6859476,0.324355 -0.9687459,0.606074 -1.00382579,1.004365 -1.00382579,2.634232 0,3.638598 0.129526,0.128449 0.2698456,0.241242 0.4171814,0.338387 -0.2288292,0.107401 -0.4463247,0.257973 -0.6395342,0.450102 -0.80575911,0.806299 -0.87861743,2.040573 -0.16190738,2.757284 0.71724978,0.717788 1.95206348,0.64493 2.75836228,-0.161369 0.1921301,-0.19159 0.3421643,-0.410164 0.4501026,-0.638993 0.096065,0.1468 0.2088605,0.287115 0.3383864,0.416101 1.0043655,1.004905 2.6336936,1.004905 3.6385989,0 0.337307,-0.336228 0.5585804,-0.744235 0.6686774,-1.175987 1.124177,0.362133 3.2780849,0.766901 6.2296559,0.02807 0.301148,0.753409 1.035129,1.285005 1.895396,1.285005 0.61363,0 1.164114,-0.270924 1.538661,-0.699979 0.737217,0.988174 2.260226,1.666021 4.020701,1.666021 1.761551,0 3.284021,-0.677847 4.021239,-1.665481 0.374007,0.429054 0.92449,0.69998 1.53866,0.69998 0.860807,0 1.594788,-0.531057 1.895935,-1.285006 2.952111,0.738838 5.106019,0.334069 6.229657,-0.02752 0.110644,0.431214 0.33191,0.839221 0.669217,1.175448 1.003825,1.005446 2.633154,1.005446 3.636979,0 0.12953,-0.128449 0.242323,-0.268766 0.338387,-0.416102 0.108482,0.228829 0.258512,0.446865 0.450104,0.639535 0.806298,0.806298 2.041651,0.879161 2.758362,0.161366 0.717249,-0.716709 0.644391,-1.950444 -0.161908,-2.756743 -0.192131,-0.195909 -0.408546,-0.345402 -0.637915,-0.452802 z M 37.95649,46.925628 H 7.1158299 V 7.1633297 H 37.95649 V 46.925628 l 0,0 z"
     id="path2982"
     inkscape:connector-curvature="0" /></svg>