<?xml version="1.0" encoding="UTF-8" standalone="no"?>
<svg
   xmlns:dc="http://purl.org/dc/elements/1.1/"
   xmlns:cc="http://creativecommons.org/ns#"
   xmlns:rdf="http://www.w3.org/1999/02/22-rdf-syntax-ns#"
   xmlns:svg="http://www.w3.org/2000/svg"
   xmlns="http://www.w3.org/2000/svg"
   xmlns:sodipodi="http://sodipodi.sourceforge.net/DTD/sodipodi-0.dtd"
   xmlns:inkscape="http://www.inkscape.org/namespaces/inkscape"
   version="1.1"
   id="Layer_1"
   x="0px"
   y="0px"
   width="45"
   height="67.412819"
   viewBox="0 0 45 67.412819"
   enable-background="new 0 0 100 100"
   xml:space="preserve"
   inkscape:version="0.48.4 r9939"
   sodipodi:docname="gramophone.svg"><metadata
     id="metadata57"><rdf:RDF><cc:Work
         rdf:about=""><dc:format>image/svg+xml</dc:format><dc:type
           rdf:resource="http://purl.org/dc/dcmitype/StillImage" /><dc:title /></cc:Work></rdf:RDF></metadata><defs
     id="defs55" /><sodipodi:namedview
     pagecolor="#ffffff"
     bordercolor="#666666"
     borderopacity="1"
     objecttolerance="10"
     gridtolerance="10"
     guidetolerance="10"
     inkscape:pageopacity="0"
     inkscape:pageshadow="2"
     inkscape:window-width="1440"
     inkscape:window-height="755"
     id="namedview53"
     showgrid="false"
     fit-margin-top="0"
     fit-margin-left="0"
     fit-margin-right="0"
     fit-margin-bottom="0"
     inkscape:zoom="2.36"
     inkscape:cx="30.417"
     inkscape:cy="45.508996"
     inkscape:window-x="-2"
     inkscape:window-y="-3"
     inkscape:window-maximized="1"
     inkscape:current-layer="Layer_1" /><g
     id="g3006"
     style="fill:#7c2929;fill-opacity:1"
     transform="scale(0.74788242,0.74788242)"><path
       inkscape:connector-curvature="0"
       id="path3"
       d="m 4.1069998,53.845257 c 0,0 -1.013,17.611 6.9210002,17.611 h 0.394 v 6.302 c 0,0 -7.4280002,-0.132 -8.8340002,-14.367 0,0 -0.394,-3.582 -0.563,-9.716 0,0 0.301,-1.05 1.088,-1.05 0.788,0 0.994,1.22 0.994,1.22 z"
       style="fill:#7c2929;fill-opacity:1" /><rect
       id="rect5"
       height="0.63800001"
       width="1.05"
       y="62.195259"
       x="28.883999"
       style="fill:#7c2929;fill-opacity:1" /><path
       inkscape:connector-curvature="0"
       id="path7"
       d="m 49.141,64.479257 h -0.003 l -0.018,-1.265 H 9.7529998 v 1.323 c -0.149,0.229 -0.772,1.096 -1.875,1.486 v 2.85 H 50.941 v -2.85 c -0.001,0.001 -1.275,-0.569 -1.8,-1.544 z"
       style="fill:#7c2929;fill-opacity:1" /><rect
       id="rect9"
       height="0.226"
       width="35.036999"
       y="61.740257"
       x="11.927999"
       style="fill:#7c2929;fill-opacity:1" /><path
       inkscape:connector-curvature="0"
       id="path11"
       d="m 29.385,60.387257 c -0.272,0 -0.507,0.22 -0.507,0.492 0,0.008 0.005,0.015 0.005,0.022 v 0.609 h 1.05 v -0.638 c 0.001,-0.27 -0.276,-0.485 -0.548,-0.485 z"
       style="fill:#7c2929;fill-opacity:1" /><path
       inkscape:connector-curvature="0"
       id="path13"
       d="m 51.391,83.536257 h -20.74 l -0.048,0.98 c 0,0 -0.013,0.091 -0.055,0.21 0.568,0.303 0.96,0.895 0.96,1.583 0,0.995 -0.806,1.801 -1.8,1.801 -0.994,0 -1.8,-0.806 -1.8,-1.801 0,-0.631 0.326,-1.185 0.817,-1.506 -0.053,-0.15 -0.066,-0.301 -0.066,-0.406 0,-0.05 -0.011,-0.378 -0.027,-0.861 H 8.3269998 l -1.5,2.851 v 3.751 H 52.891 v -3.751 l -1.5,-2.851 z"
       style="fill:#7c2929;fill-opacity:1" /><path
       inkscape:connector-curvature="0"
       id="path15"
       d="m 29.632,71.906257 c 1.681,0 1.459,2.66 1.459,2.66 l -0.41,8.37 h 16.883 v -13.503 h -35.41 v 13.504 h 16.458 c -0.097,-2.751 -0.307,-8.431 -0.307,-8.431 0,0 -0.353,-2.6 1.327,-2.6 z"
       style="fill:#7c2929;fill-opacity:1" /><path
       inkscape:connector-curvature="0"
       id="path17"
       d="m 30.267,84.607257 c 0.003,-0.024 0.004,-0.039 0.004,-0.039 l 0.309,-9.369 c 0,0 0.141,-2.505 -0.927,-2.505 -1.07,0 -0.844,2.448 -0.844,2.448 0,0 0.225,9.03 0.225,9.313 0,0.052 0.003,0.117 0.01,0.186 0.206,-0.083 0.43,-0.131 0.665,-0.131 0.196,-10e-4 0.381,0.038 0.558,0.097 z"
       style="fill:#7c2929;fill-opacity:1" /><circle
       transform="translate(-19.583,-5.3707434)"
       sodipodi:ry="1.35"
       sodipodi:rx="1.35"
       sodipodi:cy="91.681"
       sodipodi:cx="49.292"
       id="circle19"
       r="1.35"
       cy="91.681"
       cx="49.292"
       style="fill:#7c2929;fill-opacity:1"
       d="m 50.642,91.681 c 0,0.745584 -0.604416,1.35 -1.35,1.35 -0.745585,0 -1.35,-0.604416 -1.35,-1.35 0,-0.745585 0.604415,-1.35 1.35,-1.35 0.745584,0 1.35,0.604415 1.35,1.35 z" /><rect
       style="fill:#7c2929;fill-opacity:1"
       id="rect21"
       height="3.8699999"
       width="11.535"
       y="53.203259"
       x="0" /><rect
       id="rect23"
       height="2.4760001"
       width="9.9589996"
       y="53.900257"
       x="1.0690002"
       style="fill:#7c2929;fill-opacity:1" /><polyline
       transform="translate(-19.583,-5.3707434)"
       id="polyline25"
       points="47.753,64.374 49.779,65.574 51.43,66.138 50.229,65.048 48.141,63.766 "
       style="fill:#7c2929;fill-opacity:1" /><path
       inkscape:connector-curvature="0"
       id="path27"
       d="m 22.703,58.316257 c -0.145,-0.018 -0.294,-0.053 -0.442,-0.08 0.387,0.979 1.147,1.697 2.064,1.89 -0.716,-0.37 -1.292,-1.015 -1.622,-1.81 z"
       style="fill:#7c2929;fill-opacity:1" /><path
       inkscape:connector-curvature="0"
       id="path29"
       d="m 24.35,53.449257 c -1.022,0.203 -1.852,1.059 -2.193,2.201 0.119,-0.034 0.264,-0.072 0.448,-0.112 0.306,-0.93 0.939,-1.68 1.745,-2.089 z"
       style="fill:#7c2929;fill-opacity:1" /><path
       inkscape:connector-curvature="0"
       id="path31"
       d="m 25.714,59.925257 c 1.564,0 2.832,-1.403 2.832,-3.137 0,-1.731 -1.268,-3.136 -2.832,-3.136 -1.125,0 -2.089,0.732 -2.546,1.784 0.469,-0.067 1.037,-0.11 1.664,-0.073 1.664,0.101 2.814,0.224 2.814,1.425 0,0.829 -1.13,1.163 -1.13,1.163 0,0 -1.436,0.524 -3.235,0.419 0.492,0.927 1.392,1.555 2.433,1.555 z"
       style="fill:#7c2929;fill-opacity:1" /><path
       inkscape:connector-curvature="0"
       id="path33"
       d="m 7.2019998,59.865257 c 1.069,0.787 5.7960002,-0.168 5.7960002,-0.168 l 8.777,-1.858 c 2.308,0.451 4.445,-0.169 4.445,-0.169 0,0 1.05,-0.318 1.05,-0.769 0,-0.9 -0.824,-1.087 -2.438,-1.162 -1.639,-0.076 -3.114,0.411 -3.114,0.411 0,0 -3.15,0.563 -7.54,1.407 -3.211,0.618 -4.04,0.062 -4.2550002,-0.281 -0.079,-0.126 -0.078,-0.225 -0.078,-0.225 h -3.938 c 10e-4,0.025 0.003,0.048 0.005,0.073 0.06,1.195 0.243,1.97 1.29,2.741 z"
       style="fill:#7c2929;fill-opacity:1" /><polygon
       transform="translate(-19.583,-5.3707434)"
       id="polygon35"
       points="29.786,58.522 29.786,54.921 25.36,52.294 25.36,58.522 "
       style="fill:#7c2929;fill-opacity:1" /><polygon
       transform="translate(-19.583,-5.3707434)"
       id="polygon37"
       points="34.437,43.967 25.997,51.677 30.048,54.264 38.789,49.444 "
       style="fill:#7c2929;fill-opacity:1" /><polyline
       transform="translate(-19.583,-5.3707434)"
       id="polyline39"
       points="35.112,43.292 36.463,42.167 41.039,48.093 39.463,48.918 "
       style="fill:#7c2929;fill-opacity:1" /><polyline
       transform="translate(-19.583,-5.3707434)"
       id="polyline41"
       points="37.138,41.576 38.46,40.225 43.524,46.809 41.779,47.625 "
       style="fill:#7c2929;fill-opacity:1" /><path
       inkscape:connector-curvature="0"
       id="path43"
       d="m 19.43,34.245257 0.525,0.825 c 0,0 11.554,-12.342 10.766,-31.1350004 0,0 -2.025,-5.514 -3.488,-3.48799996 0,0 1.275,24.83300036 -7.803,33.79800036 z"
       style="fill:#7c2929;fill-opacity:1" /><path
       inkscape:connector-curvature="0"
       id="path45"
       d="m 20.312,35.445257 0.732,1.013 c 0,0 12.21,-8.721 17.443,-23.52 0,0 -1.575,-5.5140004 -4.614,-7.5400004 0,0 -0.899,-0.675 -2.588,-1.35 -0.001,0 2.081,15.7540004 -10.973,31.3970004 z"
       style="fill:#7c2929;fill-opacity:1" /><path
       inkscape:connector-curvature="0"
       id="path47"
       d="m 24.757,41.110257 -0.573,-0.658 c 0,0 14.57,-8.574 32.736,-3.693 0,0 4.937,3.184 2.641,4.167 10e-4,-10e-4 -24.071,-6.713 -34.804,0.184 z"
       style="fill:#7c2929;fill-opacity:1" /><path
       inkscape:connector-curvature="0"
       id="path49"
       d="m 23.897,40.023257 -0.829,-0.936 c 0,0 10.916,-9.494 26.295,-12.119 0,0 5.507,2.988 6.818,6.396 0,0 0.461,1.026 0.752,2.821 0.002,0 -14.916,-5.478 -33.036,3.838 z"
       style="fill:#7c2929;fill-opacity:1" /><path
       inkscape:connector-curvature="0"
       id="path51"
       d="m 21.494,36.908257 1.125,1.576 c 0,0 13.016,-10.766 26.146,-12.417 0,0 -1.726,-4.914 -4.428,-8.065 -2.7,-3.151 -5.288,-4.501 -5.288,-4.501 0,0 -2.701,11.591 -17.555,23.407 z"
       style="fill:#7c2929;fill-opacity:1" /></g></svg>