<?xml version="1.0" encoding="UTF-8" standalone="no"?>
<svg
   xmlns:dc="http://purl.org/dc/elements/1.1/"
   xmlns:cc="http://creativecommons.org/ns#"
   xmlns:rdf="http://www.w3.org/1999/02/22-rdf-syntax-ns#"
   xmlns:svg="http://www.w3.org/2000/svg"
   xmlns="http://www.w3.org/2000/svg"
   xmlns:sodipodi="http://sodipodi.sourceforge.net/DTD/sodipodi-0.dtd"
   xmlns:inkscape="http://www.inkscape.org/namespaces/inkscape"
   version="1.1"
   id="Layer_1"
   x="0px"
   y="0px"
   width="33.729"
   height="95.853996"
   viewBox="0 0 33.729 95.853996"
   enable-background="new 0 0 100 100"
   xml:space="preserve"
   inkscape:version="0.48.4 r9939"
   sodipodi:docname="lamp.svg"><metadata
     id="metadata21"><rdf:RDF><cc:Work
         rdf:about=""><dc:format>image/svg+xml</dc:format><dc:type
           rdf:resource="http://purl.org/dc/dcmitype/StillImage" /></cc:Work></rdf:RDF></metadata><defs
     id="defs19" /><sodipodi:namedview
     pagecolor="#ffffff"
     bordercolor="#666666"
     borderopacity="1"
     objecttolerance="10"
     gridtolerance="10"
     guidetolerance="10"
     inkscape:pageopacity="0"
     inkscape:pageshadow="2"
     inkscape:window-width="709"
     inkscape:window-height="480"
     id="namedview17"
     showgrid="false"
     fit-margin-top="0"
     fit-margin-left="0"
     fit-margin-right="0"
     fit-margin-bottom="0"
     inkscape:zoom="2.36"
     inkscape:cx="15.68"
     inkscape:cy="48.23"
     inkscape:window-x="0"
     inkscape:window-y="0"
     inkscape:window-maximized="0"
     inkscape:current-layer="Layer_1" /><path
     d="m 16.83,54.863 c 0.021,0 0.043,0 0.064,0 -0.11,0 -0.222,-10e-4 -0.333,-0.003 0.092,0.003 0.182,0.003 0.269,0.003 z"
     id="path3"
     inkscape:connector-curvature="0"
     style="fill:#7c2929;fill-opacity:1" /><path
     d="m 40.913,83.131 c 0.054,0.712 1.653,1.047 2.368,1.052 0.694,0.005 2.102,-0.144 2.102,-0.927 0,-0.824 0,-2.152 0,-3.091 -3.357,-0.458 -4.263,-0.582 -4.47,-0.61 0,0 -0.082,2.484 0,3.576 z"
     id="path5"
     inkscape:connector-curvature="0"
     style="fill:none" /><path
     d="m 40.913,79.555 c 0.001,0 -0.124,-0.017 0,0 l 0,0 z"
     id="path7"
     inkscape:connector-curvature="0"
     style="fill:#000000" /><path
     d="m -26.426,37.459 c -0.048,-0.103 -0.069,-0.159 -0.069,-0.159 0,0 0.002,0.078 0.069,0.159 z"
     id="path9"
     inkscape:connector-curvature="0"
     style="fill:#000000" /><path
     d="m 15.854,87.27 c -0.379,0.557 -2.152,0.848 -2.228,1.516 -0.104,0.908 1.554,1.686 3.239,1.686 1.685,0 3.343,-0.777 3.238,-1.686 -0.076,-0.668 -1.849,-0.959 -2.228,-1.516 v -0.598 h -2.021 v 0.598 z"
     id="path11"
     inkscape:connector-curvature="0"
     style="fill:#7c2929;fill-opacity:1" /><path
     d="m 18.717,34.096 v -8.271 c 0,0 12.602,-0.319 15.012,-3.46 L 28.321,2.191 C 27.815,0.514 19.729,0 16.865,0 14.001,0 5.9139998,0.514 5.4089998,2.191 L -2.1117553e-7,22.364 C 2.4099998,25.505 15.013,25.824 15.013,25.824 v 8.271 c 0.294,0.296 0.842,0.273 0.842,0.273 0,0 -2.504,1.656 -2.022,3.539 0.603,2.353 2.022,4.043 2.022,4.043 v 44.722 h 2.021 V 41.951 c 0,0 1.418,-1.691 2.021,-4.043 0.483,-1.882 -2.021,-3.539 -2.021,-3.539 0,0 0.546,0.023 0.841,-0.273 z M 27.824,2.55 27.82,2.532 c 0,0 0.003,0.007 0.004,0.018 l 5.025,19.09 c 0,0 -1.706,1.877 -4.106,1.583 L 25.354,3.331 C 27.809,3.166 27.843,2.653 27.824,2.55 z M 14.226,37.136 c 0.158,-0.789 1.69,-2.322 1.69,-2.322 0,0 -0.995,1.603 -1.121,2.433 -0.126,0.837 1.469,4.58 1.27,4.486 -0.483,-0.231 -1.996,-3.808 -1.839,-4.597 z m 2.639,5.354 c -0.548,0 -0.8,-0.202 -0.8,-0.202 h 1.643 c -10e-4,0.001 -0.296,0.202 -0.843,0.202 z m 0,-7.803 c -0.548,0 -0.8,-0.201 -0.8,-0.201 h 1.643 c -10e-4,0 -0.296,0.201 -0.843,0.201 z m 0,-8.113 c -0.715,0 -1.576,-0.503 -1.576,-0.503 l 1.578,0.081 1.573,-0.081 c 0,0 -0.525,0.503 -1.575,0.503 z"
     id="path13"
     inkscape:connector-curvature="0"
     style="fill:#7c2929;fill-opacity:1" /><path
     d="m 20.103,88.786 c 0.104,0.908 -1.554,1.686 -3.238,1.686 -1.685,0 -3.343,-0.777 -3.239,-1.686 0.076,-0.668 1.849,-0.959 2.228,-1.516 v -0.598 c 0,0 -7.5820002,1.516 -9.0980002,3.799 -1.35,2.033 0.252,3.276 1.011,3.782 0.758,0.506 6.6550002,1.601 9.0980002,1.601 2.948,0 7.249,-0.868 8.229,-1.432 1.289,-0.742 2.722,-1.769 1.289,-4.044 -1.001,-1.59 -8.508,-3.706 -8.508,-3.706 v 0.598 c 0.379,0.557 2.152,0.848 2.228,1.516 z m 6.428,3.109 v 0.662 c 0,0 -6.286,1.107 -9.644,1.107 -3.356,0 -10.2580002,-1.107 -10.2580002,-1.107 v -0.662 c 0,0 7.5280002,1.077 10.2580002,1.077 2.731,0.001 9.644,-1.077 9.644,-1.077 z"
     id="path15"
     inkscape:connector-curvature="0"
     style="fill:#7c2929;fill-opacity:1" /></svg>