<?xml version="1.0" encoding="UTF-8" standalone="no"?>
<svg
   xmlns:dc="http://purl.org/dc/elements/1.1/"
   xmlns:cc="http://creativecommons.org/ns#"
   xmlns:rdf="http://www.w3.org/1999/02/22-rdf-syntax-ns#"
   xmlns:svg="http://www.w3.org/2000/svg"
   xmlns="http://www.w3.org/2000/svg"
   xmlns:sodipodi="http://sodipodi.sourceforge.net/DTD/sodipodi-0.dtd"
   xmlns:inkscape="http://www.inkscape.org/namespaces/inkscape"
   version="1.1"
   id="Layer_1"
   x="0px"
   y="0px"
   width="30.549"
   height="49.331516"
   viewBox="0 0 30.548999 49.331516"
   enable-background="new 0 0 63.448 100"
   xml:space="preserve"
   inkscape:version="0.48.4 r9939"
   sodipodi:docname="mirror.svg"><metadata
     id="metadata9"><rdf:RDF><cc:Work
         rdf:about=""><dc:format>image/svg+xml</dc:format><dc:type
           rdf:resource="http://purl.org/dc/dcmitype/StillImage" /></cc:Work></rdf:RDF></metadata><defs
     id="defs7" /><sodipodi:namedview
     pagecolor="#ffffff"
     bordercolor="#666666"
     borderopacity="1"
     objecttolerance="10"
     gridtolerance="10"
     guidetolerance="10"
     inkscape:pageopacity="0"
     inkscape:pageshadow="2"
     inkscape:window-width="1440"
     inkscape:window-height="755"
     id="namedview5"
     showgrid="false"
     fit-margin-top="0"
     fit-margin-left="0"
     fit-margin-right="0"
     fit-margin-bottom="0"
     inkscape:zoom="2.36"
     inkscape:cx="-37.637474"
     inkscape:cy="48.887951"
     inkscape:window-x="-2"
     inkscape:window-y="-3"
     inkscape:window-maximized="1"
     inkscape:current-layer="Layer_1" /><path
     d="m 30.549,25.062977 c 0,-7.725922 -2.95808,-14.489194 -7.382839,-18.2151735 0.256303,0.0666 0.545401,0.03986 0.779504,-0.154387 0.346615,-0.288089 0.41725,-1.189186 0.02573,-1.592813 -0.192732,-0.198281 -0.490407,-0.399086 -0.902611,-0.525219 0.103934,-0.0671 0.199291,-0.137233 0.276484,-0.212409 0.801704,-0.774459 1.092315,-1.886955 0.700293,-2.53629 -0.631171,-1.04438402 -2.305214,-0.673552 -2.60642,0.142279 -0.485866,1.315319 0.656398,1.681106 0.39505,2.062533 -0.148333,0.216949 -1.317337,0.274971 -2.255265,-0.09485 -0.314829,-0.124116 -0.748728,-0.483848 -1.211385,-0.859221 0.224517,0.03481 0.493938,0.01514 0.822389,-0.106457 0.815831,-0.301206 1.186663,-1.97524802 0.142279,-2.60642002 -0.441467,-0.266393 -1.096856,-0.210895 -1.715414,0.100402 -0.02825,-0.05247 -0.06004,-0.104438 -0.100402,-0.152873 -0.288089,-0.346615 -0.894034,-0.418763 -1.384945,-0.144297 -0.344596,0.192227 -0.68112,0.828444 -0.75125,1.55093602 -0.02775,0.284053 -0.03128,0.589295 -0.01816,0.874357 -0.0045,0.01059 -0.0091,0.02119 -0.01312,0.03128 0.0096,-0.266898 0.004,-0.547419 -0.02119,-0.809776 -0.07013,-0.722997 -0.406654,-1.35870902 -0.75125,-1.55144102 -0.490911,-0.273962 -1.096351,-0.202318 -1.38444,0.144297 -0.04087,0.04894 -0.07316,0.100402 -0.100907,0.153378 -0.618053,-0.311297 -1.273442,-0.366796 -1.714909,-0.100402 -1.044385,0.63117102 -0.673552,2.30521302 0.141774,2.60642002 0.199795,0.07366 0.374868,0.106456 0.534301,0.116042 -0.413718,0.335515 -0.796154,0.641263 -1.08172,0.753774 -0.937928,0.369318 -2.1069323,0.311297 -2.2552653,0.09485 -0.2618529,-0.381427 0.880916,-0.74671 0.39505,-2.062533 -0.301207,-0.815831 -1.975249,-1.18666302 -2.6064204,-0.142279 -0.3920226,0.649335 -0.1019158,1.761831 0.7002925,2.53629 0.077194,0.07518 0.1725505,0.145811 0.2764844,0.212409 -0.4122039,0.126133 -0.7093742,0.326433 -0.902106,0.524715 -0.3920225,0.403628 -0.3213878,1.304725 0.025227,1.593318 0.2341036,0.194245 0.5232013,0.220985 0.7789998,0.153882 C 2.9580797,10.573278 -3.1086751e-7,17.33655 -3.1086751e-7,25.062472 -3.1086751e-7,35.288357 5.182568,43.826074 12.089128,45.866912 c -0.350651,0.01665 -0.663462,0.06307 -0.886466,0.10242 -0.360741,0.06508 -1.077683,-0.709374 -1.5958393,-0.09082 -0.452062,0.538842 -0.0439,1.21088 0.6498393,1.251243 0.662452,0.04036 1.800175,-0.534301 2.312782,-0.538842 0.718455,-0.0061 1.482319,0.331983 1.525709,0.513615 0.07618,0.321388 -0.777486,0.271944 -0.7901,1.272938 -0.0081,0.619063 1.012095,1.293624 1.699269,0.760837 0.193741,-0.150856 0.314325,-0.403122 0.361246,-0.698779 0.04692,0.295657 0.167505,0.547923 0.360742,0.698779 0.687174,0.533292 1.707341,-0.141774 1.699269,-0.760837 -0.01261,-1.000994 -0.866284,-0.952054 -0.7901,-1.272938 0.04289,-0.181127 0.807254,-0.519165 1.52571,-0.513615 0.512606,0.005 1.650329,0.579205 2.313286,0.538842 0.693229,-0.04036 1.100892,-0.712401 0.649334,-1.251243 -0.518156,-0.619063 -1.234593,0.155901 -1.595839,0.09082 C 19.270153,45.922912 18.891249,45.86893 18.47299,45.863884 25.372991,43.816487 30.549,35.282808 30.549,25.062977 z M 22.109668,4.9764885 c 0.522697,-0.02775 1.022185,0.116043 1.053466,0.231076 0.06256,0.226032 -0.631676,0.28153 -0.63874,1.013608 -5.04e-4,0.04389 0.0091,0.08829 0.02371,0.132188 -0.614521,-0.464171 -1.255279,-0.868807 -1.917227,-1.214412 0.520174,0.01715 1.030258,-0.04389 1.478788,-0.16246 z m -5.984777,-3.92073 c 0.134206,-0.03733 0.210391,0.191218 0.401609,0.385464 -0.09485,0.163973 -0.177091,0.3562 -0.247726,0.563059 -0.137738,0.01059 -0.267907,0.04188 -0.385968,0.09233 -0.02472,-0.517652 0.118061,-1.009572 0.232085,-1.040853 z m -0.826426,2.165963 c 0.0111,0.05247 0.02472,0.105952 0.04339,0.160441 0.05449,0.157919 0.131179,0.274466 0.22149,0.366292 0.005,0.01615 0.01261,0.03683 0.01816,0.05348 -0.102421,-0.003 -0.203832,-0.0111 -0.307261,-0.0111 -0.03835,0 -0.07619,0.0035 -0.114529,0.004 0.02724,-0.08779 0.05096,-0.167001 0.06862,-0.227545 0.02725,-0.09384 0.05096,-0.211904 0.07013,-0.345605 z m -0.715428,-2.070606 c 0.113015,0.03128 0.254789,0.514624 0.233599,1.026221 -0.122602,-0.07669 -0.263367,-0.130674 -0.416745,-0.157919 -0.06508,-0.175073 -0.136728,-0.34056 -0.218967,-0.482838 0.191218,-0.194246 0.267907,-0.422799 0.402113,-0.385464 z m -7.1976757,4.056954 c 0.031786,-0.115034 0.5317784,-0.258826 1.0539706,-0.231076 0.4490348,0.118565 0.9586138,0.179109 1.4782828,0.162459 -0.661948,0.345606 -1.3027052,0.750242 -1.917227,1.214413 0.014632,-0.04389 0.024722,-0.08779 0.024218,-0.131684 -0.00757,-0.733087 -0.7013016,-0.788585 -0.639244,-1.014112 z M 15.543164,47.271533 c -0.09183,0.197273 -0.148837,0.401104 -0.178605,0.600899 -0.02977,-0.199795 -0.08678,-0.404131 -0.179109,-0.600899 -0.163974,-0.352669 -0.595854,-0.735105 -1.142769,-1.012094 0.406654,0.04541 0.816336,0.07467 1.231062,0.07467 0.492425,0 0.978291,-0.03532 1.459111,-0.09838 -0.569114,0.277998 -1.020671,0.673047 -1.18969,1.035807 z M 15.274248,45.67418 c -8.0109838,0 -14.50533921,-9.232459 -14.50533921,-20.620285 0,-10.581582 5.60738551,-19.2968935 12.82826921,-20.4795195 -0.03279,0.11907 -0.06609,0.238644 -0.111502,0.353173 -0.08325,0.209886 -0.0111,0.336524 0.130675,0.377391 -0.07417,0.109989 -0.136224,0.194246 -0.172551,0.237131 -0.352669,0.4117 0.785559,0.269421 1.180104,-0.442476 0.119574,-0.214931 0.220986,-0.440457 0.306252,-0.653875 0.114529,-0.004 0.228554,-0.01211 0.343587,-0.01211 0.18365,0 0.365787,0.01009 0.547419,0.01968 0.07669,0.182641 0.161955,0.369823 0.262357,0.55095 0.394546,0.712402 1.532269,0.85468 1.1796,0.442476 -0.03633,-0.04238 -0.09788,-0.126638 -0.172046,-0.23713 0.141774,-0.04087 0.213418,-0.167506 0.130674,-0.377391 -0.02825,-0.07215 -0.04743,-0.147324 -0.07114,-0.220986 7.123004,1.309264 12.628474,9.9594915 12.628474,20.4431935 5.04e-4,11.387321 -6.494356,20.61978 -14.504834,20.61978 z"
     id="path3"
     inkscape:connector-curvature="0"
     style="fill:#7c2929;fill-opacity:1" /></svg>