<?xml version="1.0" encoding="UTF-8" standalone="no"?>
<!-- Generator: Adobe Illustrator 16.0.0, SVG Export Plug-In . SVG Version: 6.00 Build 0)  -->

<svg
   xmlns:dc="http://purl.org/dc/elements/1.1/"
   xmlns:cc="http://creativecommons.org/ns#"
   xmlns:rdf="http://www.w3.org/1999/02/22-rdf-syntax-ns#"
   xmlns:svg="http://www.w3.org/2000/svg"
   xmlns="http://www.w3.org/2000/svg"
   xmlns:sodipodi="http://sodipodi.sourceforge.net/DTD/sodipodi-0.dtd"
   xmlns:inkscape="http://www.inkscape.org/namespaces/inkscape"
   version="1.1"
   id="Layer_1"
   x="0px"
   y="0px"
   width="138.5"
   height="105.88187"
   viewBox="0 0 138.50001 105.88187"
   enable-background="new 0 0 99.212 63.086"
   xml:space="preserve"
   inkscape:version="0.48.4 r9939"
   sodipodi:docname="table.svg"><metadata
     id="metadata35"><rdf:RDF><cc:Work
         rdf:about=""><dc:format>image/svg+xml</dc:format><dc:type
           rdf:resource="http://purl.org/dc/dcmitype/StillImage" /><dc:title /></cc:Work></rdf:RDF></metadata><defs
     id="defs33" /><sodipodi:namedview
     pagecolor="#ffffff"
     bordercolor="#666666"
     borderopacity="1"
     objecttolerance="10"
     gridtolerance="10"
     guidetolerance="10"
     inkscape:pageopacity="0"
     inkscape:pageshadow="2"
     inkscape:window-width="966"
     inkscape:window-height="480"
     id="namedview31"
     showgrid="false"
     fit-margin-top="0"
     fit-margin-left="0"
     fit-margin-right="0"
     fit-margin-bottom="0"
     inkscape:zoom="2.1809168"
     inkscape:cx="28.376991"
     inkscape:cy="57.18439"
     inkscape:window-x="0"
     inkscape:window-y="0"
     inkscape:window-maximized="0"
     inkscape:current-layer="Layer_1" /><g
     id="g3006"
     transform="matrix(0.87381705,0,0,0.87381705,0,-1.465878e-6)"><path
       style="fill:#7c2929"
       inkscape:connector-curvature="0"
       id="path5"
       d="M 1.5481532,8.742023 H 156.9445 c 0,0.003 2.45709,0.003 1.19501,-3.9570114 L 157.8775,3.9570092 c 0,0 -1.26048,-3.9570113283012 -3.71595,-3.9570113283012 H 4.1585949 c 0,0 -2.4554766,0 -3.65685501,4.0230115283012 l -0.2076851,0.696002 c 0,0 -0.30034456,1.0020029 -0.29395424422,2.0070058 v 0.006 C 0.00649084,7.7370201 0.32121363,8.742023 1.5481532,8.742023 z" /><path
       style="fill:#7c2929"
       inkscape:connector-curvature="0"
       id="path7"
       d="m 153.00329,93.289597 h -8.93702 v 2.955009 c 11.11203,6.978024 3.06001,24.927074 3.06001,24.927074 h 3.60901 c 10.71603,-21.933066 2.268,-27.882083 2.268,-27.882083 z" /><path
       style="fill:#7c2929"
       inkscape:connector-curvature="0"
       id="path9"
       d="M 13.970894,96.244606 V 93.289597 H 5.0308699 c 0,0 -8.4510242,5.949017 2.2710065,27.882083 h 3.6060086 c 0,0 -8.0550214,-17.94305 3.063009,-24.927074 z" /><rect
       style="fill:#7c2929"
       id="rect11"
       height="65.440193"
       width="8.7900257"
       y="12.495364"
       x="144.07826" /><path
       style="fill:#7c2929"
       inkscape:connector-curvature="0"
       id="path15"
       d="m 17.318904,93.256597 v 2.664008 c 1.476004,2.757008 8.409024,4.377015 17.394052,4.377015 4.098011,0 11.433032,-1.197006 18.375052,-2.070008 8.157024,-0.816003 13.506039,1.953008 15.333044,2.319008 2.805008,0.675 6.483019,1.71301 10.728031,1.71301 4.242012,0 7.926023,-1.04101 10.728031,-1.71301 1.827005,-0.366 7.17902,-3.141011 15.333046,-2.319008 6.93902,0.873002 14.27704,2.070008 18.37505,2.070008 8.98503,0 15.91805,-1.620007 17.39405,-4.377015 V 93.256597 H 79.149083 17.318904 z" /><path
       style="fill:#7c2929"
       inkscape:connector-curvature="0"
       id="path17"
       d="M 151.74329,81.205563 H 6.5608743 c -2.4270069,0 -4.3950126,1.965005 -4.3950126,4.395012 0,2.430007 1.9680057,4.395013 4.3950126,4.395013 H 151.74329 c 2.42701,0 4.38901,-1.965006 4.38901,-4.395013 0,-2.430007 -1.971,-4.395012 -4.38901,-4.395012 z" /><path
       style="fill:#7c2929"
       inkscape:connector-curvature="0"
       id="path21"
       d="M 140.98226,46.879464 H 17.318904 V 77.935553 H 140.98226 V 46.879464 z M 87.834108,67.150522 c -2.754008,0 -5.811017,-1.845005 -8.685025,-3.81301 -2.877008,1.965005 -5.961017,3.81301 -8.685025,3.81301 -3.39301,0 -6.237018,-2.271006 -6.237018,-5.388015 0,-0.483001 0.093,-1.032003 0.273001,-1.635005 l 0.909003,0.240001 c -0.120001,0.453001 -0.210001,0.936003 -0.210001,1.395004 0,2.571007 2.421007,4.476013 5.268015,4.476013 2.421007,0 5.232015,-1.602005 7.896023,-3.44701 l -0.846003,-0.636002 c -2.571007,-1.788005 -5.082014,-3.56701 -6.687019,-3.56701 -1.359004,0 -2.391007,1.062003 -2.391007,2.391007 0,1.359004 1.062003,2.421007 2.391007,2.421007 v 0.912002 c -1.875005,0 -3.35701,-1.485004 -3.35701,-3.330009 0,-1.812005 1.452005,-3.30001 3.35701,-3.30001 1.938006,0 4.449013,1.788005 7.233021,3.753011 l 1.089003,0.816002 1.089003,-0.786002 c 2.784008,-1.968005 5.322015,-3.789011 7.263021,-3.789011 1.905005,0 3.327009,1.485005 3.327009,3.30301 0,1.842005 -1.452004,3.327009 -3.327009,3.327009 v -0.912002 c 1.329004,0 2.358007,-1.059003 2.358007,-2.424007 0,-1.326004 -0.996003,-2.391007 -2.358007,-2.391007 -1.635005,0 -4.116012,1.758005 -6.717019,3.60301 l -0.816003,0.603002 c 2.664008,1.815005 5.445016,3.44401 7.866023,3.44401 2.844008,0 5.268015,-1.905006 5.268015,-4.506013 0,-0.486001 -0.063,-0.936003 -0.183001,-1.359004 l 0.906003,-0.246001 c 0.18,0.576002 0.240001,1.095003 0.240001,1.605005 0,3.156009 -2.844008,5.427015 -6.234018,5.427015 z" /><rect
       style="fill:#7c2929"
       id="rect23"
       height="65.440193"
       width="8.7870245"
       y="12.495364"
       x="5.4358711" /><path
       style="fill:#7c2929"
       inkscape:connector-curvature="0"
       id="path27"
       d="M 140.98226,12.565366 H 17.318904 V 43.618455 H 140.98226 V 12.565366 z M 87.834108,32.830424 c -2.754008,0 -5.811017,-1.845005 -8.685025,-3.813011 -2.877008,1.968006 -5.961017,3.813011 -8.685025,3.813011 -3.39301,0 -6.237018,-2.274006 -6.237018,-5.391015 0,-0.486002 0.093,-1.029003 0.273001,-1.635005 l 0.909003,0.246001 c -0.120001,0.453001 -0.210001,0.936002 -0.210001,1.389004 0,2.571007 2.421007,4.479012 5.268015,4.479012 2.421007,0 5.232015,-1.602004 7.896023,-3.447009 L 77.517078,27.83841 c -2.571007,-1.788005 -5.082014,-3.57301 -6.687019,-3.57301 -1.359004,0 -2.391007,1.059003 -2.391007,2.391006 0,1.362004 1.062003,2.427007 2.391007,2.427007 v 0.903003 c -1.875005,0 -3.35701,-1.482004 -3.35701,-3.32701 0,-1.815005 1.452005,-3.300009 3.35701,-3.300009 1.938006,0 4.449013,1.788005 7.233021,3.750011 l 1.089003,0.816002 1.089003,-0.786002 c 2.784008,-1.968006 5.322015,-3.783011 7.263021,-3.783011 1.905005,0 3.327009,1.482004 3.327009,3.300009 0,1.845006 -1.452004,3.32701 -3.327009,3.32701 v -0.903003 c 1.329004,0 2.358007,-1.062003 2.358007,-2.427007 0,-1.332003 -0.996003,-2.391006 -2.358007,-2.391006 -1.635005,0 -4.116012,1.755005 -6.717019,3.60301 l -0.816003,0.603002 c 2.664008,1.815005 5.445016,3.450009 7.866023,3.450009 2.844008,0 5.268015,-1.908005 5.268015,-4.509012 0,-0.486002 -0.063,-0.936003 -0.183001,-1.362004 l 0.906003,-0.246001 c 0.18,0.576002 0.240001,1.092003 0.240001,1.605005 0,3.150009 -2.844008,5.424015 -6.234018,5.424015 z" /></g></svg>