<?xml version="1.0" encoding="UTF-8" standalone="no"?>
<!-- Generator: Adobe Illustrator 16.0.0, SVG Export Plug-In . SVG Version: 6.00 Build 0)  -->

<svg
   xmlns:dc="http://purl.org/dc/elements/1.1/"
   xmlns:cc="http://creativecommons.org/ns#"
   xmlns:rdf="http://www.w3.org/1999/02/22-rdf-syntax-ns#"
   xmlns:svg="http://www.w3.org/2000/svg"
   xmlns="http://www.w3.org/2000/svg"
   xmlns:sodipodi="http://sodipodi.sourceforge.net/DTD/sodipodi-0.dtd"
   xmlns:inkscape="http://www.inkscape.org/namespaces/inkscape"
   version="1.1"
   id="Layer_1"
   x="0px"
   y="0px"
   width="297.63901"
   height="121.17168"
   viewBox="0 0 297.63901 121.17168"
   enable-background="new 0 0 99.212 63.086"
   xml:space="preserve"
   inkscape:version="0.48.4 r9939"
   sodipodi:docname="table.svg"><metadata
     id="metadata35"><rdf:RDF><cc:Work
         rdf:about=""><dc:format>image/svg+xml</dc:format><dc:type
           rdf:resource="http://purl.org/dc/dcmitype/StillImage" /><dc:title /></cc:Work></rdf:RDF></metadata><defs
     id="defs33" /><sodipodi:namedview
     pagecolor="#ffffff"
     bordercolor="#666666"
     borderopacity="1"
     objecttolerance="10"
     gridtolerance="10"
     guidetolerance="10"
     inkscape:pageopacity="0"
     inkscape:pageshadow="2"
     inkscape:window-width="966"
     inkscape:window-height="480"
     id="namedview31"
     showgrid="false"
     fit-margin-top="0"
     fit-margin-left="0"
     fit-margin-right="0"
     fit-margin-bottom="0"
     inkscape:zoom="1.0904584"
     inkscape:cx="65.647818"
     inkscape:cy="22.218714"
     inkscape:window-x="0"
     inkscape:window-y="0"
     inkscape:window-maximized="0"
     inkscape:current-layer="Layer_1" /><g
     id="g2993"
     transform="scale(3.0000086,3.0000086)"><path
       style="fill:#7c2929"
       inkscape:connector-curvature="0"
       id="path3"
       d="m 93.160952,4.172666 h -41.22 v 10.351 h 41.22 v -10.351 z m -17.715,6.755 c -0.918,0 -1.938,-0.615 -2.895,-1.271 -0.959,0.656 -1.987,1.271 -2.896,1.271 -1.13,0 -2.078,-0.756 -2.078,-1.795 0,-0.162 0.031,-0.343 0.092,-0.545 l 0.303,0.081 c -0.041,0.151 -0.07,0.312 -0.07,0.464 0,0.857 0.807,1.493 1.755,1.493 0.808,0 1.745,-0.535 2.634,-1.15 l -0.283,-0.212 c -0.856,-0.595 -1.693,-1.19 -2.229,-1.19 -0.453,0 -0.797,0.353 -0.797,0.796 0,0.454 0.354,0.807 0.797,0.807 v 0.303 c -0.625,0 -1.119,-0.495 -1.119,-1.11 0,-0.605 0.484,-1.099 1.119,-1.099 0.646,0 1.482,0.595 2.411,1.25 l 0.362,0.272 0.363,-0.262 c 0.927,-0.655 1.774,-1.261 2.422,-1.261 0.635,0 1.108,0.494 1.108,1.099 0,0.615 -0.483,1.11 -1.108,1.11 v -0.303 c 0.442,0 0.785,-0.353 0.785,-0.807 0,-0.443 -0.332,-0.796 -0.785,-0.796 -0.545,0 -1.373,0.584 -2.24,1.2 l -0.271,0.202 c 0.889,0.605 1.814,1.15 2.622,1.15 0.948,0 1.756,-0.635 1.756,-1.503 0,-0.161 -0.021,-0.312 -0.062,-0.454 l 0.303,-0.08 c 0.061,0.191 0.08,0.362 0.08,0.534 -0.001,1.049 -0.949,1.806 -2.079,1.806 z" /><path
       style="fill:#7c2929"
       inkscape:connector-curvature="0"
       id="path5"
       d="M 0.96906249,2.914 H 98.239063 c 0,10e-4 1.538,10e-4 0.748,-1.319 l -0.164,-0.276 c 0,0 -0.789,-1.319 -2.326,-1.319 H 2.6030625 c 0,0 -1.537,0 -2.289,1.341 l -0.13,0.232 c 0,0 -0.188,0.334 -0.183999995749,0.669 V 2.244 C 0.0040625,2.579 0.2010625,2.914 0.96906249,2.914 z" /><path
       style="fill:#7c2929"
       inkscape:connector-curvature="0"
       id="path7"
       d="m 51.000952,31.096444 h -2.979 v 0.985 c 3.704,2.326 1.02,8.309 1.02,8.309 h 1.203 c 3.572,-7.311 0.756,-9.294 0.756,-9.294 z" /><path
       style="fill:#7c2929"
       inkscape:connector-curvature="0"
       id="path9"
       d="m 4.6569514,32.081444 v -0.985 h -2.98 c 0,0 -2.817,1.983 0.757,9.294 h 1.202 c 0,0 -2.68500001,-5.981 1.021,-8.309 z" /><rect
       style="fill:#7c2929"
       id="rect11"
       height="21.813335"
       width="2.9300001"
       y="4.1651101"
       x="48.025951" /><path
       style="fill:#7c2929"
       inkscape:connector-curvature="0"
       id="path13"
       d="m 93.159952,15.638666 h -20.609 -20.61 v 0.888 c 0.491,0.918 2.803,1.458 5.798,1.458 1.366,0 3.811,-0.399 6.125,-0.692 2.719,-0.271 4.502,0.653 5.111,0.775 0.935,0.224 2.16,0.57 3.576,0.57 1.414,0 2.642,-0.346 3.576,-0.57 0.608,-0.122 2.392,-1.046 5.11,-0.775 2.313,0.293 4.759,0.692 6.125,0.692 2.995,0 5.306,-0.541 5.797,-1.458 v -0.888 z" /><path
       style="fill:#7c2929"
       inkscape:connector-curvature="0"
       id="path15"
       d="m 5.7729514,31.085444 v 0.888 c 0.492,0.919 2.803,1.459 5.7980006,1.459 1.366,0 3.811,-0.399 6.125,-0.69 2.719,-0.272 4.502,0.651 5.111,0.773 0.935,0.225 2.161,0.571 3.576,0.571 1.414,0 2.642,-0.347 3.576,-0.571 0.609,-0.122 2.393,-1.047 5.111,-0.773 2.313,0.291 4.759,0.69 6.125,0.69 2.995,0 5.306,-0.54 5.798,-1.459 v -0.888 h -20.61 -20.6100006 z" /><path
       style="fill:#7c2929"
       inkscape:connector-curvature="0"
       id="path17"
       d="M 50.580952,27.068444 H 2.1869514 c -0.809,0 -1.46500001,0.655 -1.46500001,1.465 0,0.81 0.65600001,1.465 1.46500001,1.465 H 50.580952 c 0.809,0 1.463,-0.655 1.463,-1.465 0,-0.81 -0.657,-1.465 -1.463,-1.465 z" /><path
       style="fill:#7c2929"
       inkscape:connector-curvature="0"
       id="path19"
       d="m 97.048952,4.171111 h -2.877 v 10.148778 c 2.482,9.05474 -1.025,25.938555 -1.025,25.938555 h 1.294 c 2.933,-13.21539 2.608,-25.93978 2.608,-25.93978 V 4.171111 z" /><path
       style="fill:#7c2929"
       inkscape:connector-curvature="0"
       id="path21"
       d="M 46.993952,15.626444 H 5.7729514 v 10.352 H 46.993952 v -10.352 z m -17.716,6.757 c -0.918,0 -1.937,-0.615 -2.895,-1.271 -0.959,0.655 -1.987,1.271 -2.895,1.271 -1.131,0 -2.079,-0.757 -2.079,-1.796 0,-0.161 0.031,-0.344 0.091,-0.545 l 0.303,0.08 c -0.04,0.151 -0.07,0.312 -0.07,0.465 0,0.857 0.807,1.492 1.756,1.492 0.807,0 1.744,-0.534 2.632,-1.149 l -0.282,-0.212 c -0.857,-0.596 -1.694,-1.189 -2.229,-1.189 -0.453,0 -0.797,0.354 -0.797,0.797 0,0.453 0.354,0.807 0.797,0.807 v 0.304 c -0.625,0 -1.119,-0.495 -1.119,-1.11 0,-0.604 0.484,-1.1 1.119,-1.1 0.646,0 1.483,0.596 2.411,1.251 l 0.363,0.272 0.363,-0.262 c 0.928,-0.656 1.774,-1.263 2.421,-1.263 0.635,0 1.109,0.495 1.109,1.101 0,0.614 -0.484,1.109 -1.109,1.109 v -0.304 c 0.443,0 0.786,-0.353 0.786,-0.808 0,-0.442 -0.332,-0.797 -0.786,-0.797 -0.545,0 -1.372,0.586 -2.239,1.201 l -0.272,0.201 c 0.888,0.605 1.815,1.148 2.622,1.148 0.948,0 1.756,-0.635 1.756,-1.502 0,-0.162 -0.021,-0.312 -0.061,-0.453 l 0.302,-0.082 c 0.06,0.192 0.08,0.365 0.08,0.535 0,1.052 -0.948,1.809 -2.078,1.809 z" /><rect
       style="fill:#7c2929"
       id="rect23"
       height="21.813335"
       width="2.9289999"
       y="4.1651101"
       x="1.8119514" /><path
       style="fill:#7c2929"
       inkscape:connector-curvature="0"
       id="path27"
       d="M 46.993952,4.188444 H 5.7729514 v 10.351 H 46.993952 v -10.351 z m -17.716,6.755 c -0.918,0 -1.937,-0.615 -2.895,-1.271 -0.959,0.656 -1.987,1.271 -2.895,1.271 -1.131,0 -2.079,-0.758 -2.079,-1.797 0,-0.162 0.031,-0.343 0.091,-0.545 l 0.303,0.082 c -0.04,0.151 -0.07,0.312 -0.07,0.463 0,0.857 0.807,1.493 1.756,1.493 0.807,0 1.744,-0.534 2.632,-1.149 l -0.282,-0.211 c -0.857,-0.596 -1.694,-1.191 -2.229,-1.191 -0.453,0 -0.797,0.353 -0.797,0.797 0,0.454 0.354,0.809 0.797,0.809 v 0.301 c -0.625,0 -1.119,-0.494 -1.119,-1.109 0,-0.605 0.484,-1.1 1.119,-1.1 0.646,0 1.483,0.596 2.411,1.25 l 0.363,0.272 0.363,-0.262 c 0.928,-0.656 1.774,-1.261 2.421,-1.261 0.635,0 1.109,0.494 1.109,1.1 0,0.615 -0.484,1.109 -1.109,1.109 v -0.301 c 0.443,0 0.786,-0.354 0.786,-0.809 0,-0.444 -0.332,-0.797 -0.786,-0.797 -0.545,0 -1.372,0.585 -2.239,1.201 l -0.272,0.201 c 0.888,0.605 1.815,1.15 2.622,1.15 0.948,0 1.756,-0.636 1.756,-1.503 0,-0.162 -0.021,-0.312 -0.061,-0.454 l 0.302,-0.082 c 0.06,0.192 0.08,0.364 0.08,0.535 0,1.05 -0.948,1.808 -2.078,1.808 z" /></g></svg>